<svg width="140" height="140" viewBox="0 0 140 140" fill="none" xmlns="http://www.w3.org/2000/svg">
<g clip-path="url(#clip0_160_918)">
<path fill-rule="evenodd" clip-rule="evenodd" d="M9.43005 0H130.328C135.648 0 140 4.35233 140 9.43005V130.328C140 135.648 135.648 140 130.328 140H9.43005C4.35233 140 0 135.648 0 130.328V9.43005C0 4.35233 4.35233 0 9.43005 0ZM9.43005 2.90155H130.328C133.955 2.90155 136.857 5.80311 136.857 9.43005V130.328C136.857 133.955 133.955 136.857 130.328 136.857H9.43005C5.80311 136.857 2.90155 133.955 2.90155 130.328V9.43005C2.90155 5.80311 5.80311 2.90155 9.43005 2.90155Z" fill="#6F097A"/>
<path fill-rule="evenodd" clip-rule="evenodd" d="M47.6338 32.4007C44.0069 31.9171 41.5889 31.1917 37.4784 32.8843C25.3886 37.4784 22.487 55.1296 28.0483 67.9448C29.2573 70.6045 31.1917 73.7479 32.8843 75.6822C34.8186 77.8584 36.5112 79.551 39.6546 81.2436C40.8635 81.9689 42.3143 82.6943 44.0069 83.1779C46.1831 83.6615 47.392 83.4197 49.5682 83.4197C49.3264 85.3541 48.8428 87.2885 48.601 88.981C48.1174 91.8826 50.5354 91.399 52.7116 91.399L58.5147 114.37C58.9983 115.579 59.24 116.788 59.7236 117.997C59.9654 119.447 60.2072 120.898 61.658 120.656C63.8342 120.173 62.1416 116.304 61.658 113.644C60.449 109.776 56.0967 93.0916 55.6131 90.4318C56.8221 89.4646 58.5147 89.2228 58.5147 87.7721C58.5147 86.8049 57.7893 86.3213 57.0639 85.3541C56.5803 84.8705 56.3385 84.6287 56.0967 84.3869C55.6131 83.9033 54.4041 82.4525 54.1623 82.2107C57.3057 80.2764 58.9982 79.3092 61.4162 76.1658C63.1088 73.5061 64.3178 70.6045 65.0432 66.7358C65.5267 66.9776 66.2521 67.703 66.7357 67.9448C67.9447 69.1537 70.6045 71.3299 71.5717 72.0553C71.0881 73.5061 69.8791 75.924 69.1537 77.6166C68.6701 78.5838 68.1865 79.7928 69.1537 80.5182C69.6373 81.0018 71.0881 81.2436 72.0552 81.4853C72.297 88.0138 72.0552 95.0259 72.0552 101.796V117.029C72.0552 118.722 71.8135 120.656 73.506 120.656C75.1986 120.898 75.1986 118.964 75.1986 117.271V91.6408C75.1986 88.4974 74.9568 84.8705 75.1986 81.4853C76.8912 80.76 79.7927 81.0018 78.1002 77.8584C77.6166 76.6494 75.6822 72.7807 75.6822 72.0553C76.4076 71.3299 79.0673 69.3955 80.5181 68.1866C81.0017 67.4612 81.4853 66.9776 81.9689 66.7358C82.9361 71.8135 85.5958 76.6494 88.981 79.551C90.19 80.76 91.3989 81.2436 93.0915 82.2107L89.4646 86.3213C87.772 88.2556 89.2228 89.2228 91.6407 90.4318L84.6287 117.271C84.3869 118.48 83.9033 120.173 85.1122 120.656C86.8048 121.14 87.0466 119.447 87.5302 118.238C87.772 117.029 88.2556 115.82 88.4974 114.37L92.3661 99.1365C92.8497 97.4439 93.8169 92.3662 94.5423 91.399C96.4767 91.399 99.1364 91.8826 98.6528 89.2228C98.411 87.2885 97.9274 85.3541 97.6856 83.4197C103.972 83.6615 108.808 81.4854 112.919 77.133C117.997 71.8135 120.898 65.5268 121.623 58.0311C122.591 50.2936 120.414 42.798 116.788 38.2038C115.82 36.9948 115.095 36.0277 113.886 35.0605C110.984 33.1261 108.808 31.9171 104.94 31.6753C102.763 31.6753 101.554 32.1589 99.3782 32.4007C95.9931 21.5199 85.5958 17.1676 76.8912 21.7617C75.4404 22.4871 74.715 23.2125 73.506 23.9379C72.297 23.2125 71.0881 21.2781 66.7357 20.3109C58.5147 18.3765 50.2936 23.6961 47.6338 32.4007ZM112.193 21.7617C111.226 21.7617 110.984 20.7945 109.775 21.2781C109.292 22.7289 110.984 22.4871 111.468 23.2125C111.226 24.1796 109.775 24.1796 110.501 25.6304C111.468 25.8722 111.71 24.905 112.193 24.4214C113.161 24.905 113.161 26.114 114.611 25.6304C115.095 24.6632 114.128 24.4214 113.644 23.6961C114.128 23.4543 114.853 23.4543 115.337 23.2125C116.062 23.2125 116.546 22.9707 116.304 22.2453C115.579 21.2781 114.37 22.0035 113.402 22.2453C113.644 21.0363 114.128 20.0691 113.644 19.3437L112.919 19.1019C112.435 19.8273 112.435 21.0363 112.193 21.7617ZM31.4335 91.6408C29.4991 92.3662 30.4663 95.2677 32.1589 94.7841C34.0932 94.3006 33.6096 91.1572 31.4335 91.6408ZM19.1019 107.358C17.1675 107.841 17.8929 110.743 19.8273 110.259C21.7616 109.776 21.0362 106.632 19.1019 107.358ZM39.4128 117.513C37.7202 118.238 38.6874 121.14 40.6217 120.415C42.3143 119.689 41.3471 116.788 39.4128 117.513ZM92.6079 87.2885C93.0915 88.0138 94.5423 88.2556 95.5095 88.2556L94.7841 84.8705L92.6079 87.2885ZM72.0552 78.342C73.2642 78.5838 73.9896 78.5838 74.9568 78.342L73.7478 75.1986C73.2642 75.4404 72.0552 78.1002 72.0552 78.342ZM51.9862 88.2556C53.1951 88.2556 53.6787 87.772 54.6459 87.5303L52.7116 85.1123C52.4698 84.8705 52.7116 85.1123 52.4698 84.8705C52.228 85.5959 51.7444 87.7721 51.9862 88.2556ZM62.3834 64.076C57.5475 58.7565 53.6787 54.4042 50.0518 47.8757C48.8428 45.9413 48.601 44.7323 47.8756 42.798C47.1502 41.3472 43.7651 41.1054 42.3143 41.3472C41.1053 41.589 40.1381 41.8308 39.6546 40.8636C38.9292 39.4128 39.8964 38.6874 40.8635 38.4456C43.2815 37.7202 44.7323 38.2038 46.9084 38.6874L47.1502 35.3023C44.7323 34.8187 43.2815 34.5769 40.6217 35.0605C39.6546 35.3023 38.9292 35.5441 37.962 35.7859C34.0932 37.4784 31.1917 41.589 29.7409 45.6995C26.8394 53.9206 28.5319 62.867 32.1589 69.3955C34.8186 74.4733 41.3471 81.4853 49.81 80.2764C54.1623 79.551 56.8221 77.133 58.5147 74.7151C60.2072 72.5389 62.3834 67.703 62.3834 64.076ZM73.7478 69.6373C74.2314 69.1537 74.9568 68.9119 75.4404 68.4284C78.5837 65.5268 82.4525 62.3835 85.354 58.9983C85.5958 58.7565 85.5958 58.5147 85.8376 58.2729C86.3212 57.7893 86.3212 57.7893 86.563 57.5475L88.0138 55.8549C90.6736 52.228 93.8169 48.6011 95.7513 44.2487C98.411 37.4784 97.4438 31.6753 92.6079 26.5976C89.4646 23.2125 83.9033 22.0035 79.3091 23.9379C78.5837 24.1796 78.1002 24.6632 77.3748 24.905C76.6494 25.3886 76.1658 25.8722 75.6822 26.114L77.3748 28.7738C78.342 31.1917 80.5181 37.2366 79.0673 38.6874C78.1002 39.6546 76.6494 38.9292 76.6494 37.962C76.4076 36.9948 76.4076 35.5441 76.1658 34.3351C75.6822 31.9171 74.715 29.9828 73.506 28.532C70.8463 24.905 66.9775 22.7289 62.3834 22.9707C57.5475 23.4543 54.1623 26.3558 52.228 29.2574C46.4249 38.6874 52.9533 47.3921 57.0639 53.1952C59.4818 56.3385 65.5267 63.1088 69.1537 66.0104C69.8791 66.7358 72.7806 69.3955 73.7478 69.6373ZM100.104 35.5441C100.345 42.0726 98.8946 45.2159 95.5095 50.7772C94.3005 52.7116 92.8497 54.8878 91.3989 56.5803C89.2228 58.9983 87.772 60.6909 85.5958 63.1088C85.1122 63.5924 84.6287 63.8342 84.6287 64.5596C84.8704 66.0104 85.354 67.4612 85.5958 68.6702C86.8048 72.5389 88.7392 75.6822 91.6407 77.8584C92.6079 78.5838 93.5751 79.0674 94.7841 79.551C95.7513 80.0346 97.6857 80.5182 98.8946 80.5182C114.37 81.0018 125.734 54.4042 114.37 39.8964C110.984 35.5441 105.423 33.6097 100.104 35.5441Z" fill="#6F097A"/>
</g>
<defs>
<clipPath id="clip0_160_918">
<rect width="140" height="140" fill="white"/>
</clipPath>
</defs>
</svg>
