<svg width="140" height="140" viewBox="0 0 140 140" fill="none" xmlns="http://www.w3.org/2000/svg">
<g clip-path="url(#clip0_160_982)">
<path d="M131.793 0H8.2069C3.67435 0 0 4.32277 0 9.65517V130.345C0 135.677 3.67435 140 8.2069 140H131.793C136.326 140 140 135.677 140 130.345V9.65517C140 4.32277 136.326 0 131.793 0Z" fill="#6F097A"/>
<path d="M130.828 2.89655H9.17241C5.70634 2.89655 2.89655 5.70634 2.89655 9.17241V130.828C2.89655 134.294 5.70634 137.103 9.17241 137.103H130.828C134.294 137.103 137.103 134.294 137.103 130.828V9.17241C137.103 5.70634 134.294 2.89655 130.828 2.89655Z" fill="#FEFEFE"/>
<path fill-rule="evenodd" clip-rule="evenodd" d="M52.1379 111.517C50.2069 112.483 51.1724 115.379 53.5862 114.897C55.5172 113.931 54.5517 110.552 52.1379 111.517ZM54.069 98.4828C57.4483 100.897 61.7931 103.31 65.6552 105.724C66.6207 106.207 68.069 107.172 69.5172 107.655C70 108.138 70.9655 107.172 71.4483 107.172C73.3793 106.207 84.4827 99.4483 84.9655 98.9655C84.4827 98.9655 84.9655 98.9655 84.4827 99.4483V73.3793L73.3793 79.6552C72.4138 80.1379 70.9655 80.6207 70 81.5862L55.0345 72.8966C54.5517 72.8966 54.069 72.4138 54.069 72.4138V98.4828ZM67.5862 54.5517C67.1034 54.069 66.6207 53.1035 66.6207 53.1035H66.1379V53.5862C65.6552 54.069 65.1724 54.5517 64.6896 55.5172C63.7241 56.9655 63.7241 59.8621 64.2069 61.7931C64.2069 63.2414 65.1724 66.6207 66.1379 67.5862C67.5862 68.069 69.0345 69.5172 70 69.0345C70.4827 69.0345 73.3793 67.5862 73.8621 67.1035L80.1379 63.7241C80.6207 63.7241 80.6207 63.7241 80.6207 63.7241C81.1034 63.2414 81.1034 63.2414 81.1034 63.2414C80.6207 63.2414 79.6552 62.7586 78.6896 62.7586C76.7586 62.2759 74.3448 61.7931 72.8965 60.3448C69.5172 58.4138 69.0345 56.9655 67.5862 54.5517ZM88.3448 59.3793C88.8276 59.3793 89.7931 58.8966 90.2759 58.4138C90.7586 57.931 91.7241 57.931 92.2069 57.4483C93.1724 56.9655 94.6207 56 95.5862 55.5172C96.5517 55.0345 97.5172 54.5517 98.4827 54.069C100.897 53.1035 102.828 51.6552 104.759 50.6897V61.7931C104.276 61.7931 99.4483 64.6897 98.4827 65.1724L92.2069 68.5517V89.7931C92.2069 90.7586 92.6896 94.1379 92.2069 94.6207L101.862 88.8276C102.345 88.8276 102.828 88.3448 103.31 87.8621C103.793 87.8621 104.759 87.3793 104.759 86.8966V50.6897C104.276 50.2069 91.2414 43.931 91.2414 43.931C91.2414 45.8621 91.2414 46.3448 90.2759 47.7931C89.7931 48.7586 88.8276 49.7241 88.3448 50.2069C86.4138 51.1724 83.0345 51.6552 80.6207 51.6552C79.1724 51.1724 77.7241 51.1724 76.2759 51.1724C74.8276 51.1724 73.8621 50.6897 72.4138 50.6897C72.4138 51.1724 72.4138 50.6897 71.931 51.1724C72.8965 55.0345 82.5517 55.0345 85.931 54.069C89.7931 53.5862 92.2069 52.6207 94.6207 50.6897C94.6207 52.1379 91.2414 55.5172 90.2759 56.4828L88.8276 57.931C88.3448 58.4138 87.3793 58.4138 86.8965 58.8966C87.3793 59.3793 87.8621 59.3793 88.3448 59.3793ZM80.6207 44.4138C81.5862 44.4138 83.5172 43.931 84.4827 43.931C85.931 43.4483 86.4138 42.4828 86.8965 41.0345C85.931 41.0345 84 42 83.5172 42.4828C83.0345 42.9655 82.5517 42.9655 82.069 43.4483C81.5862 43.931 80.6207 44.4138 80.6207 44.4138ZM57.4483 44.4138C56 43.931 53.1034 41.0345 51.1724 41.0345C51.1724 42 51.6552 42 52.1379 42.9655C52.1379 43.4483 52.6207 43.4483 53.1034 43.4483C54.069 43.931 56 44.4138 57.4483 44.4138ZM45.8621 56.4828L53.1034 60.3448C53.5862 58.8966 55.5172 56.4828 56.4827 55.0345C57.4483 54.5517 58.4138 53.5862 58.8965 53.1035C59.8621 52.6207 60.8276 52.1379 61.3103 51.1724L56.4827 51.6552C53.5862 51.1724 51.1724 51.1724 49.7241 50.2069C48.2759 48.7586 46.8276 47.3103 46.8276 44.4138C44.8965 45.3793 42.9655 46.3448 40.5517 47.7931C39.5862 48.2759 35.2414 50.2069 34.7586 50.6897V61.3103C35.2414 62.2759 35.7241 62.2759 36.2069 62.2759C36.6896 62.7586 37.1724 62.7586 37.6552 63.2414C38.6207 63.7241 39.5862 64.2069 40.069 64.6897L45.8621 68.069V93.6552C45.3793 93.6552 43.931 92.6897 43.4483 92.2069C42.4827 91.7241 42 91.2414 41.0345 90.7586C39.5862 89.7931 38.1379 88.8276 36.2069 87.8621C35.7241 87.8621 35.2414 87.3793 34.7586 86.8966V50.6897L44.4138 56C44.8965 56 45.3793 56.4828 45.8621 56.4828ZM59.3793 38.6207C59.8621 39.1035 60.3448 40.069 61.3103 40.5517C62.2759 42 63.7241 43.931 65.6552 44.4138C66.1379 44.4138 68.5517 44.4138 69.5172 44.4138C71.4483 44.4138 70.9655 44.4138 72.8965 43.4483C75.3103 42 74.8276 42.9655 76.2759 41.0345L79.1724 38.1379C79.1724 37.6552 78.6896 37.6552 78.2069 37.1724L70.4827 33.7931C70 33.3103 70 33.3103 69.0345 33.3103L61.7931 37.1724C60.8276 37.6552 59.8621 38.1379 59.3793 38.6207ZM122.621 51.1724C120.207 51.6552 121.172 55.0345 123.586 54.5517C125.517 54.069 125.034 50.6897 122.621 51.1724ZM83.5172 19.3103C81.5862 19.7931 82.5517 22.6897 84.4827 22.2069C86.4138 21.7241 85.931 18.3448 83.5172 19.3103ZM114.414 80.1379C112 81.1035 112.966 84 114.897 83.5173C117.31 83.0345 116.828 79.6552 114.414 80.1379ZM116.345 23.1724C115.379 23.1724 114.897 22.2069 113.448 22.6897C112.966 24.1379 114.897 23.6552 115.379 24.6207C114.897 26.069 113.448 26.069 114.414 27.5172C115.379 28 115.862 26.5517 116.345 26.069C117.31 26.5517 117.793 28 118.759 27.5172C119.724 26.5517 118.759 26.069 118.276 25.5862C118.759 25.1034 119.241 25.1035 119.724 24.6207C120.69 24.6207 121.172 24.6207 121.172 23.6552C120.207 22.6897 118.759 23.6552 117.793 23.6552C117.793 22.2069 118.759 21.2414 118.276 20.2759H117.31C116.828 21.2414 116.345 22.2069 116.345 23.1724ZM16.4138 73.3793C14.4827 74.3448 15.4483 77.2414 17.3793 76.7586C19.3103 76.2759 18.8276 72.8966 16.4138 73.3793ZM20.2759 102.828C18.3448 103.31 18.8276 106.69 21.2414 105.724C23.1724 105.241 22.6896 101.862 20.2759 102.828Z" fill="#6F097A"/>
</g>
<defs>
<clipPath id="clip0_160_982">
<rect width="140" height="140" fill="white"/>
</clipPath>
</defs>
</svg>
