<svg width="140" height="140" viewBox="0 0 140 140" fill="none" xmlns="http://www.w3.org/2000/svg">
<g clip-path="url(#clip0_160_973)">
<path d="M131.691 0H8.30861C3.71989 0 0 4.27787 0 9.5549V130.445C0 135.722 3.71989 140 8.30861 140H131.691C136.28 140 140 135.722 140 130.445V9.5549C140 4.27787 136.28 0 131.691 0Z" fill="#6F097A"/>
<path d="M130.445 2.90802H9.5549C5.88392 2.90802 2.90801 5.88393 2.90801 9.5549V130.445C2.90801 134.116 5.88392 137.092 9.5549 137.092H130.445C134.116 137.092 137.092 134.116 137.092 130.445V9.5549C137.092 5.88393 134.116 2.90802 130.445 2.90802Z" fill="#FEFEFE"/>
<path fill-rule="evenodd" clip-rule="evenodd" d="M35.3119 117.567C33.6502 118.398 34.4811 121.306 36.5582 120.89C38.2199 120.059 37.3891 116.736 35.3119 117.567ZM132.523 47.7745C130.445 48.6053 131.276 51.5134 133.353 51.0979C135.431 50.6825 134.6 47.359 132.523 47.7745ZM82.2555 18.6944C80.5938 19.5252 81.4247 22.8487 83.0864 22.0178C85.1636 21.6024 84.3327 18.2789 82.2555 18.6944ZM118.398 73.1157C116.321 73.9466 117.152 77.27 119.229 76.4392C121.306 76.0237 120.475 72.7003 118.398 73.1157ZM100.119 93.4718C94.303 93.4718 42.7897 93.8872 41.5434 93.4718V52.3442C41.5434 45.2819 40.2971 46.9436 46.5285 46.9436H81.0093H83.9173C83.5018 47.359 72.7007 59.4065 71.0389 63.5608C69.7926 64.3917 68.5463 66.8843 67.7155 68.1306C66.8846 69.7923 65.6383 71.454 64.8075 73.1157C63.1458 73.1157 60.6532 74.362 59.8223 75.1929C56.0834 78.1009 56.9143 81.8398 55.2526 85.9941C54.4217 88.9021 54.0063 88.9021 52.3446 90.5638H53.1754C61.8995 92.641 68.5463 90.1484 69.3772 80.5935C69.7926 78.5163 68.9618 77.6855 70.2081 76.8546C71.0389 76.0237 71.8698 75.1929 72.2852 74.362C73.5315 73.5312 76.4395 70.6231 77.2704 69.3769C78.5167 68.9614 85.1636 60.2374 85.9944 58.5757L94.303 46.9436H99.7036C100.119 46.9436 100.119 46.9436 100.119 46.9436C100.534 48.1899 100.119 46.5282 100.119 48.6053C100.119 49.0208 100.119 49.4362 100.119 49.8516C100.119 50.6825 100.119 51.9288 100.119 52.7596C100.119 54.8368 100.119 56.4985 100.119 58.5757V81.8398C100.119 85.5786 100.534 90.1484 100.119 93.4718ZM82.2555 42.7893C74.7778 42.7893 66.8846 42.7893 58.9914 42.7893C55.2526 42.7893 51.0983 42.7893 47.3594 42.7893C35.7274 42.7893 37.8045 41.1276 37.8045 70.6231C37.8045 74.7774 36.9736 93.0564 38.2199 95.549C36.9736 96.3798 36.9736 95.9644 36.1428 97.2107C35.7274 98.0415 35.3119 98.457 34.8965 99.2878C34.0656 100.119 31.9885 103.027 31.5731 103.858C31.1576 104.688 31.1576 106.35 31.5731 107.181C32.4039 108.012 33.6502 108.012 34.8965 108.012C56.0834 107.596 78.1012 108.012 99.2882 108.012C100.95 108.012 108.843 108.427 109.674 107.596C110.089 106.766 110.505 105.104 110.089 103.858C110.089 103.442 105.104 96.3798 103.442 95.549C104.273 92.6409 103.858 84.3323 103.858 81.0089V50.2671C103.858 47.3591 104.273 45.6973 102.612 44.0356C100.534 41.9585 99.2882 42.7893 96.7956 42.7893C97.6265 41.1276 98.4573 39.4659 99.2882 38.2196C100.119 36.1424 100.95 34.8961 100.534 32.819C98.4573 32.4036 95.1339 35.727 93.4722 36.9733L87.6561 42.7893H82.2555ZM59.8223 101.365C59.8223 102.611 59.8223 103.027 59.8223 103.858C60.6532 103.858 80.5938 104.273 81.8401 103.858C82.2555 102.611 81.8401 102.611 81.8401 101.365C84.7481 101.365 101.365 101.78 102.612 101.365C103.027 100.119 101.781 98.0415 100.534 97.6261C100.119 97.2107 95.9647 97.6261 94.7184 97.6261H43.2051C40.2971 97.6261 40.2971 97.6261 39.0508 99.7033C37.8045 102.196 40.2971 101.365 42.3742 101.365H59.8223ZM112.167 23.2641C110.92 22.8487 110.92 22.0178 109.674 22.4332C109.259 24.095 110.92 23.6795 111.336 24.5104C110.92 25.7567 109.674 25.7567 110.505 27.003C111.336 27.4184 111.751 26.5875 112.167 25.7567C112.997 26.1721 113.413 27.8338 114.659 27.4184C115.075 26.1721 114.244 25.7567 113.828 25.3412C114.244 24.9258 114.659 24.9258 115.49 24.5104C116.321 24.5104 116.736 24.095 116.321 23.2641C115.905 22.4332 114.244 23.2641 113.413 23.2641C113.413 22.0178 114.244 21.1869 113.828 20.3561L112.997 19.9407C112.582 20.7715 112.167 22.0178 112.167 23.2641ZM21.6027 73.1157C19.5256 73.9466 20.3564 77.27 22.0182 76.4392C24.0953 76.0237 23.6799 72.7003 21.6027 73.1157ZM6.64724 110.504C4.98551 111.335 5.40095 114.243 7.4781 113.828C9.55525 113.412 8.72439 110.089 6.64724 110.504Z" fill="#6F097A"/>
</g>
<defs>
<clipPath id="clip0_160_973">
<rect width="140" height="140" fill="white"/>
</clipPath>
</defs>
</svg>
