<svg width="140" height="140" viewBox="0 0 140 140" fill="none" xmlns="http://www.w3.org/2000/svg">
<g clip-path="url(#clip0_160_940)">
<path d="M131.799 0H8.20084C3.67164 0 0 4.19616 0 9.37238V130.628C0 135.804 3.67164 140 8.20084 140H131.799C136.328 140 140 135.804 140 130.628V9.37238C140 4.19616 136.328 0 131.799 0Z" fill="#6F097A"/>
<path d="M130.042 2.92889H9.37238C5.81372 2.92889 2.92886 5.81375 2.92886 9.37241V130.042C2.92886 133.601 5.81372 136.485 9.37238 136.485H130.042C133.6 136.485 136.485 133.601 136.485 130.042V9.37241C136.485 5.81375 133.6 2.92889 130.042 2.92889Z" fill="#FEFEFE"/>
<path fill-rule="evenodd" clip-rule="evenodd" d="M9.95785 84.9372C7.61475 85.523 8.7863 88.4519 11.1294 87.8661C12.8867 87.2803 11.7152 83.7657 9.95785 84.9372ZM124.184 94.8954C121.841 95.4811 123.012 98.41 124.77 97.8242C126.527 97.2385 125.941 94.3096 124.184 94.8954ZM80.2507 16.4017C78.4934 16.9874 79.0792 20.5021 80.8365 19.9163C83.1796 19.3305 82.5938 15.8159 80.2507 16.4017ZM104.267 120.669C101.924 121.841 103.096 124.77 104.853 124.184C106.611 123.598 106.025 120.084 104.267 120.669ZM123.012 29.8745C122.426 29.2887 121.841 28.7029 120.669 28.7029C120.083 30.4602 121.841 30.4602 122.426 31.046C121.841 32.2175 120.669 32.2176 121.255 33.9749C122.426 33.9749 123.012 32.8033 123.012 32.2176C124.184 32.8033 124.184 34.5606 125.355 33.9749C126.527 32.8033 125.355 32.2176 124.77 31.6318C125.355 31.046 125.941 31.046 126.527 31.046C127.113 31.046 127.698 31.046 127.698 29.8745C126.527 29.2887 125.355 29.8745 124.77 29.8745C124.77 28.7029 125.355 27.5314 124.77 26.9456L124.184 26.3598C123.598 27.5314 123.598 28.7029 123.012 29.8745ZM43.9327 115.983C41.5896 116.569 42.7612 120.084 44.5185 119.498C46.2758 118.912 45.6901 115.397 43.9327 115.983ZM15.2298 108.954C12.8867 109.54 14.0583 113.054 15.8156 112.469C17.5729 111.883 16.9871 108.368 15.2298 108.954Z" fill="#6F097A"/>
<path fill-rule="evenodd" clip-rule="evenodd" d="M68.5359 55.0627L56.2347 57.9916L60.3351 76.1506L72.6363 73.2217L68.5359 55.0627ZM44.5192 60.9205L38.6614 62.092C34.561 63.2636 32.2179 67.9498 33.3895 72.636C34.561 77.9079 39.2472 80.8368 43.3476 80.251L48.6196 78.4937L44.5192 60.9205Z" fill="#6F097A"/>
<path d="M54.1965 56.537L44.9736 58.7466L50.1383 80.304L59.3612 78.0944L54.1965 56.537Z" fill="#6F097A"/>
<path fill-rule="evenodd" clip-rule="evenodd" d="M73.8074 72.6359L69.707 54.4769L86.1087 30.4602C87.2803 47.4477 91.9664 66.1924 98.9957 81.4225L73.8074 72.6359ZM76.1505 70.2928L93.7238 76.7364C89.0376 65.0209 85.5229 51.5481 84.3514 38.661L72.6359 55.0627L76.1505 70.2928Z" fill="#6F097A"/>
<path fill-rule="evenodd" clip-rule="evenodd" d="M60.9209 81.4225L50.9627 82.0083L64.4355 101.925C67.3644 106.025 77.3225 105.439 73.8079 100.167L60.9209 81.4225Z" fill="#6F097A"/>
<path fill-rule="evenodd" clip-rule="evenodd" d="M94.896 41.59C98.4106 43.3473 101.34 47.4477 102.511 53.3054C103.683 58.5774 103.097 63.2636 101.34 66.1925L97.8249 64.4352C100.168 62.0921 100.754 57.9916 99.5822 53.8912C98.9964 49.205 96.0675 46.2762 93.1387 45.1046L94.896 41.59Z" fill="#6F097A"/>
<path fill-rule="evenodd" clip-rule="evenodd" d="M101.925 33.389C106.026 36.3179 109.541 42.7614 111.298 51.548C113.055 58.5773 113.055 65.6066 111.884 70.2928L107.783 66.7782C109.541 64.4351 110.126 58.5773 108.369 52.1338C107.197 45.1045 103.683 40.4183 100.754 38.661L101.925 33.389Z" fill="#6F097A"/>
</g>
<defs>
<clipPath id="clip0_160_940">
<rect width="140" height="140" fill="white"/>
</clipPath>
</defs>
</svg>
