<svg width="140" height="140" viewBox="0 0 140 140" fill="none" xmlns="http://www.w3.org/2000/svg">
<g clip-path="url(#clip0_160_955)">
<path d="M131.799 0H8.20084C3.67164 0 0 4.19616 0 9.37238V130.628C0 135.804 3.67164 140 8.20084 140H131.799C136.328 140 140 135.804 140 130.628V9.37238C140 4.19616 136.328 0 131.799 0Z" fill="#6F097A"/>
<path d="M130.042 2.92886H9.37241C5.81375 2.92886 2.92889 5.81372 2.92889 9.37238V130.042C2.92889 133.6 5.81375 136.485 9.37241 136.485H130.042C133.601 136.485 136.485 133.6 136.485 130.042V9.37238C136.485 5.81372 133.601 2.92886 130.042 2.92886Z" fill="#FEFEFE"/>
<path fill-rule="evenodd" clip-rule="evenodd" d="M11.1297 97.2385C8.78663 97.8243 9.95818 101.339 12.3013 100.167C14.0586 99.5816 12.887 96.6527 11.1297 97.2385ZM125.356 77.908C123.598 78.4937 124.184 82.0084 125.941 81.4226C128.285 80.8368 127.699 77.3222 125.356 77.908ZM80.2511 16.4017C78.4937 16.9875 79.0795 20.5021 80.8368 19.9163C83.1799 19.3305 82.5942 15.8159 80.2511 16.4017ZM86.1088 120.084C83.7657 120.669 84.9373 124.184 86.6946 123.598C88.4519 123.013 87.8661 119.498 86.1088 120.084ZM117.155 14.6444C116.569 14.0586 115.983 13.4728 114.812 13.4728C114.226 15.2301 115.983 15.2301 116.569 15.8159C115.983 16.9875 114.812 16.9875 115.398 18.7448C116.569 18.7448 117.155 17.5732 117.155 16.9875C118.326 17.5732 118.326 19.3305 119.498 18.7448C120.669 17.5732 119.498 16.9875 118.912 16.4017C119.498 15.8159 120.084 16.4017 120.669 15.8159C121.255 15.8159 121.841 15.8159 121.841 14.6444C120.669 14.0586 119.498 14.6444 118.912 14.6444C118.912 13.4728 119.498 12.3013 118.912 11.7155H118.326C117.741 12.3013 117.741 13.4728 117.155 14.6444ZM21.6737 73.2218C19.3306 73.8075 20.5021 76.7364 22.2594 76.1506C24.0168 75.5648 23.431 72.636 21.6737 73.2218ZM17.5732 116.569C15.8159 117.155 16.4017 120.669 18.7448 120.084C20.5021 119.498 19.9163 115.983 17.5732 116.569Z" fill="#6F097A"/>
<path fill-rule="evenodd" clip-rule="evenodd" d="M35.7326 101.339C34.561 101.339 32.8037 101.339 31.6322 101.339C31.0464 101.925 29.8748 102.51 30.4606 103.682C31.0464 104.854 32.2179 104.854 33.3895 104.854C35.1468 104.854 36.3183 104.854 38.0757 104.854C39.2472 104.854 40.4188 104.854 41.5903 104.854C43.3476 104.854 44.5192 104.854 45.105 103.682C45.6907 102.51 45.105 101.925 43.9334 101.339C42.7619 101.339 41.0045 101.339 39.833 101.339V57.9916H48.6196C48.6196 66.7782 48.6196 76.1506 48.6196 84.9372C48.6196 91.9665 48.0338 90.795 56.2347 90.795C60.9209 90.795 65.0213 90.795 69.7075 90.795C77.3225 90.795 83.1803 87.8661 87.2807 81.4226C89.038 79.0795 90.7953 75.5649 90.7953 71.4644C91.3811 69.1213 90.7953 67.364 90.7953 65.0209C91.3811 62.6778 90.7953 60.3347 91.3811 57.9916H100.168V101.339C98.9962 101.339 96.6531 101.339 96.0673 101.339C94.8958 101.925 94.31 102.51 94.8958 103.682C94.8958 104.854 96.6531 104.854 97.8246 104.854C98.9962 104.854 100.753 104.854 101.925 104.854C103.097 104.854 104.854 104.854 106.025 104.854C107.197 104.854 108.369 104.854 108.954 104.268C109.54 102.51 108.954 101.925 107.783 101.339C107.197 101.339 104.854 101.339 103.682 101.339V57.9916C111.297 57.9916 110.126 58.5774 110.126 53.3054C110.126 50.9623 110.712 43.3473 110.126 41.59C108.954 39.2469 107.783 36.9038 104.854 35.7322C103.097 35.1464 101.925 35.1464 100.168 35.1464L48.0338 34.5607C45.6907 34.5607 38.6614 34.5607 36.9041 35.1464C32.8037 35.7322 31.0464 38.6611 29.2891 42.1757C29.2891 42.7615 29.2891 49.205 29.2891 50.3766C29.2891 52.1339 29.2891 54.477 29.2891 56.2343C29.2891 59.1632 35.1468 57.4059 35.7326 57.9916C35.7326 58.5774 35.7326 66.1925 35.7326 66.7782C35.7326 70.2929 35.7326 74.3933 35.7326 78.4937C35.7326 79.6653 35.7326 100.167 35.7326 101.339ZM32.8037 47.4477L33.3895 53.8912C38.0757 54.477 43.3476 53.8912 48.6196 53.8912V48.0335C47.4481 48.0335 45.105 48.0335 44.5192 48.0335C43.3476 48.0335 42.7619 46.8619 43.3476 45.6904C43.9334 44.5188 45.105 44.5188 46.8623 44.5188C56.8204 44.5188 66.7786 44.5188 77.3225 44.5188H92.5527C93.7242 44.5188 94.8958 44.5188 95.4815 45.1046C96.6531 45.1046 96.6531 46.2762 96.6531 46.8619C95.4815 48.6192 93.1384 48.0335 91.3811 48.0335V53.8912H106.611V45.6904C106.611 36.9038 101.339 38.6611 93.7242 38.6611H41.0045C38.0757 38.6611 36.3183 38.6611 34.561 40.4184C32.8037 41.59 32.8037 44.5188 32.8037 47.4477Z" fill="#6F097A"/>
<path fill-rule="evenodd" clip-rule="evenodd" d="M101.34 41.59C98.9966 42.1758 100.168 45.6904 102.511 45.1046C103.683 44.5189 104.269 43.3473 103.683 42.1758C103.683 41.59 102.511 41.0042 101.34 41.59Z" fill="#6F097A"/>
<path fill-rule="evenodd" clip-rule="evenodd" d="M101.339 48.0335C98.9962 48.6193 99.582 52.1339 102.511 51.5481C104.854 50.9624 104.268 46.8619 101.339 48.0335Z" fill="#6F097A"/>
<path fill-rule="evenodd" clip-rule="evenodd" d="M52.1338 48.0334H87.866V69.1213C87.866 78.4937 79.6652 86.6945 70.2928 86.6945H52.1338V48.0334Z" fill="#FEFEFE"/>
<path fill-rule="evenodd" clip-rule="evenodd" d="M59.1635 77.908C57.4062 78.4937 57.992 80.8368 59.7493 80.8368C61.5066 80.251 60.9209 77.3222 59.1635 77.908Z" fill="#6F097A"/>
<path fill-rule="evenodd" clip-rule="evenodd" d="M77.3229 52.1339C74.9798 52.7197 76.1513 55.0628 77.9086 55.0628C79.0802 54.477 79.0802 51.5481 77.3229 52.1339Z" fill="#6F097A"/>
<path fill-rule="evenodd" clip-rule="evenodd" d="M76.7368 75.5649C76.151 74.9791 75.5652 74.3933 74.3937 74.9791C74.3937 76.1506 75.5652 76.1506 76.151 76.7364C75.5652 77.3222 74.3937 77.908 74.9795 79.0795C76.151 79.0795 76.151 78.4937 76.7368 77.908C77.3225 77.908 77.9083 79.6653 79.0799 79.0795C79.6656 77.908 78.4941 77.908 77.9083 77.3222C78.4941 76.7364 79.0799 76.7364 79.6656 76.7364C80.2514 76.7364 80.8372 76.1506 80.2514 75.5649C79.6656 74.9791 78.4941 75.5649 77.9083 75.5649C77.9083 74.3933 78.4941 73.8075 77.9083 72.636H77.3226C76.7368 73.2218 76.7368 74.3933 76.7368 75.5649Z" fill="#6F097A"/>
<path fill-rule="evenodd" clip-rule="evenodd" d="M62.0928 59.749C63.2643 59.749 63.2643 59.1632 64.4359 59.1632C65.0216 60.9205 63.2643 60.3348 63.2643 60.9205C63.2643 62.0921 64.4359 62.0921 63.8501 63.2636C63.2643 63.8494 62.6785 62.6778 62.0928 62.0921C61.507 62.6778 61.507 63.8494 60.3354 63.8494C59.7497 62.6779 60.3354 62.0921 60.9212 61.5063C60.3354 61.5063 59.7497 61.5063 59.7497 61.5063C58.5781 60.9205 58.5781 60.9205 58.5781 60.3348C59.1639 59.1632 60.3354 60.3348 60.9212 60.3348C60.9212 59.1632 60.3354 57.9917 60.9212 57.4059H61.507C62.0928 57.9917 62.0928 59.1632 62.0928 59.749Z" fill="#6F097A"/>
<path fill-rule="evenodd" clip-rule="evenodd" d="M72.0503 67.364C70.293 67.9498 70.8788 70.8787 72.6361 70.2929C74.3934 69.7071 73.8076 66.7782 72.0503 67.364Z" fill="#6F097A"/>
</g>
<defs>
<clipPath id="clip0_160_955">
<rect width="140" height="140" fill="white"/>
</clipPath>
</defs>
</svg>
