<svg width="105" height="111" viewBox="0 0 105 111" fill="none" xmlns="http://www.w3.org/2000/svg">
<path fill-rule="evenodd" clip-rule="evenodd" d="M66.0671 86.0695H59.7676C57.7703 86.0695 53.6219 86.5403 52.2391 85.2848C50.8563 84.0294 50.549 80.577 55.1583 80.577H66.0671C68.5254 80.577 70.2155 80.2631 71.9055 78.8507C75.1321 76.026 75.2857 71.475 72.2128 68.3365C70.6764 66.7672 69.14 66.4533 66.3744 66.4533H46.8615C45.0178 66.4533 44.8641 66.1394 43.1741 65.6687C39.1793 64.2563 35.9528 63.3147 31.3434 63.9424C20.742 65.0409 15.6717 71.475 9.06501 78.3799C7.52857 79.9492 6.14577 81.3616 4.60933 82.9309C3.68746 83.7155 0.307289 87.0111 0 87.6388L5.5312 93.4452C7.52857 95.3283 9.21866 97.0545 11.216 98.9377C13.0598 100.978 15.0571 102.704 16.9009 104.587L22.5857 110.237C23.2003 109.923 26.8878 105.843 27.9633 104.901C28.8851 103.802 28.4242 103.803 30.4216 103.803H66.0671C72.0592 103.803 76.2076 100.664 78.9732 97.5253C86.1945 88.8942 93.8767 80.2631 100.944 71.632C102.327 70.0627 104.171 68.4934 104.785 65.8256C106.015 60.1761 100.637 55.4682 95.2595 57.5083C92.9548 58.4499 91.572 60.49 90.1892 62.0593L81.1242 72.2597C79.5878 73.9859 80.2023 73.0443 79.7414 75.7121C78.6659 81.6755 73.5956 86.0695 66.0671 86.0695Z" fill="#6F097A"/>
<path fill-rule="evenodd" clip-rule="evenodd" d="M57.463 10.4296C64.5306 22.0424 68.5254 20.7869 58.9994 31.772L38.4111 54.9976L67.2962 37.2645C76.2076 31.772 78.205 39.3046 84.1971 45.5818C82.8143 27.8488 83.4289 33.3413 99.5615 21.7285L87.1163 16.8637C82.8143 15.1375 83.5825 4.46629 82.9679 0.0722656C79.4341 4.46629 75.593 13.2543 69.4472 12.3128L57.463 10.4296Z" fill="#6F097A"/>
</svg>
