<svg width="96" height="116" viewBox="0 0 96 116" fill="none" xmlns="http://www.w3.org/2000/svg">
<path fill-rule="evenodd" clip-rule="evenodd" d="M16.8521 28.45C33.779 46.3291 40.397 42.6749 27.5428 65.7742L0.0525513 115.366L44.4697 72.2994C58.0875 59.1185 64.5783 71.6469 77.5598 80.3907C68.5236 49.4612 71.5781 58.988 95.7593 32.1041L71.9599 28.3194C63.5601 27.0144 61.0147 7.56925 58.342 0C53.7603 9.39631 50.0695 26.3619 38.8698 27.0144L16.8521 28.45ZM34.1608 34.8447C36.9607 37.4548 39.6334 40.3259 40.7788 44.241C43.4515 52.7238 37.8516 62.3811 33.9063 69.4283L30.3427 75.823L39.5061 66.9487C44.7242 61.9896 50.9604 58.205 58.342 59.3795C60.8874 59.771 63.3056 60.815 65.7237 62.1201C65.4691 59.249 65.7237 56.5084 66.7418 53.6373C68.3963 48.9391 71.9599 45.546 75.3962 42.1529C77.178 40.5869 78.9597 38.8903 80.6142 37.1937L70.9417 35.7582C63.5601 34.5837 59.4875 27.9279 56.9421 21.1417C53.124 28.0584 47.7787 33.9311 39.3789 34.4532L34.1608 34.8447Z" fill="#6F097A"/>
<path fill-rule="evenodd" clip-rule="evenodd" d="M51.7238 47.5037C51.5965 47.5037 51.0874 47.2427 50.9602 47.1122C49.942 46.8512 49.3057 46.4597 48.1602 46.1987C47.5239 46.0682 46.633 45.8072 45.9966 46.0682C45.233 46.4597 45.1058 47.3732 45.6148 47.7648C47.2693 49.0698 48.1602 49.9833 49.5602 51.5494C49.942 52.0714 50.3238 52.5934 50.7056 53.1154C51.2147 53.768 51.7238 54.6815 52.2329 55.334C52.4874 55.595 52.6147 55.9865 52.9965 55.9865C53.3783 55.9865 53.5056 55.7255 53.6328 55.4645C54.5237 52.0714 55.9237 48.5478 57.5782 45.5462C58.0873 44.6327 58.7236 43.5886 59.2327 42.8056C59.6145 42.2836 60.7599 40.4565 61.1417 40.065C61.3963 39.804 61.9053 39.1515 62.2872 38.6295L63.4326 37.3244C63.6871 37.0634 63.8144 36.8024 63.9417 36.5414C64.4507 35.4973 63.178 34.4533 61.1417 36.2804C60.5054 36.6719 60.2508 36.9329 59.7418 37.4549L59.1054 38.1074C59.1054 38.2379 59.1054 38.2379 58.9781 38.2379L58.3418 39.021C57.4509 40.065 56.4328 41.2395 55.5419 42.2836C55.4146 42.5446 55.1601 42.8056 55.0328 43.0666C54.7783 43.3276 54.3964 43.8496 54.1419 44.1106C54.1419 44.2411 54.0146 44.3716 53.8874 44.5021C53.8874 44.6327 53.7601 44.7632 53.6328 44.8937L53.3783 45.2852C53.1237 45.6767 51.851 47.3732 51.7238 47.5037Z" fill="#6F097A"/>
</svg>
