<svg width="110" height="128" viewBox="0 0 110 128" fill="none" xmlns="http://www.w3.org/2000/svg">
<path fill-rule="evenodd" clip-rule="evenodd" d="M13.9502 88.3381L17.8597 91.8236C19.1245 93.0254 21.4242 95.6696 22.919 95.6696C24.4139 95.6696 26.3686 93.6264 23.494 91.1024L16.8248 84.9729C15.33 83.5306 14.4101 82.4489 14.1801 80.6461C13.6052 77.0405 16.0199 74.0358 19.4695 73.7954C21.3092 73.6752 22.3441 74.3963 24.0689 75.8386L36.0274 86.7757C37.1772 87.8574 37.4072 87.7372 38.787 88.3381C42.0066 89.6602 44.3063 90.9823 46.951 93.8668C52.8153 100.597 52.5853 107.448 53.0452 115.501C53.1602 117.303 53.2752 118.986 53.3902 120.909C53.5052 121.871 53.8501 125.837 53.7352 126.438L47.296 126.798C45.1112 127.039 43.1565 127.039 40.8568 127.279C38.787 127.399 36.6023 127.399 34.5326 127.64L27.9784 128C27.8634 127.399 27.6334 122.832 27.6334 121.63C27.5185 120.308 27.8634 120.548 26.5986 119.467L4.63635 99.5156C1.0718 96.1503 0.0369262 91.8236 0.151912 88.3381C0.151912 78.8433 -0.0780593 69.2283 0.0369262 59.7334C0.0369262 58.0508 -0.193045 56.0076 0.841825 53.9644C3.02655 49.6376 8.77582 49.7578 10.9605 54.0846C11.9954 56.0076 11.7654 58.0508 11.7654 59.7334L11.8804 71.2715C11.9954 73.1945 12.1104 72.3531 11.0755 74.156C8.54585 78.6029 9.35075 84.1315 13.9502 88.3381Z" fill="#6F097A"/>
<path fill-rule="evenodd" clip-rule="evenodd" d="M96.0494 88.3381L92.1399 91.8236C90.8751 93.0254 88.5754 95.6696 87.0805 95.6696C85.4708 95.6696 83.516 93.6264 86.3906 91.1024L93.1748 84.9729C94.6696 83.5306 95.4745 82.4489 95.8194 80.6461C96.2794 77.0405 93.9797 74.0358 90.4151 73.7954C88.6903 73.6752 87.5405 74.3963 85.9307 75.8386L73.9722 86.7757C72.7074 87.8574 72.4774 87.7372 71.2125 88.3381C67.993 89.6602 65.5783 90.9823 63.0486 93.8668C57.0693 100.597 57.4143 107.448 56.8394 115.501C56.8394 117.303 56.7244 118.986 56.4944 120.909C56.4944 121.871 56.0345 125.837 56.2644 126.438L62.7036 126.798C64.8883 127.039 66.8431 127.039 69.0278 127.279C71.2125 127.399 73.3973 127.399 75.467 127.64L81.9062 128C82.1362 127.399 82.2512 122.832 82.3661 121.63C82.4811 120.308 82.1362 120.548 83.401 119.467L105.248 99.5156C108.928 96.1503 109.848 91.8236 109.848 88.3381C109.848 78.8433 109.963 69.2283 109.963 59.7334C109.848 58.0508 110.193 56.0076 109.158 53.9644C106.973 49.6376 101.224 49.7578 98.9241 54.0846C98.0042 56.0076 98.2341 58.0508 98.1191 59.7334V71.2715C98.0042 73.1945 97.8892 72.3531 98.9241 74.156C101.454 78.6029 100.649 84.1315 96.0494 88.3381Z" fill="#6F097A"/>
<path fill-rule="evenodd" clip-rule="evenodd" d="M76.9623 77.0401L77.1923 60.2138C77.0773 56.9688 76.7324 54.0842 76.0424 51.9209C69.7182 32.0899 42.2367 31.9697 36.0275 52.041C34.1877 57.6899 34.8776 68.2664 35.1076 77.0401H76.9623Z" fill="#6F097A"/>
<path fill-rule="evenodd" clip-rule="evenodd" d="M52.8154 0.481047C48.676 1.68293 46.2613 3.60593 44.1915 6.49044C36.8325 17.3073 46.0313 32.9318 59.2546 29.6867C66.1538 28.1242 71.903 20.913 70.0633 11.7787C68.5685 4.928 61.5543 -1.92271 52.8154 0.481047Z" fill="#6F097A"/>
<path fill-rule="evenodd" clip-rule="evenodd" d="M44.536 50.599C48.9055 58.0507 51.3202 57.2094 45.4559 64.1802L32.8075 78.8432L50.6302 67.6657C56.0346 64.1802 57.4144 68.8676 60.9789 72.8338C60.174 61.6563 60.634 65.1417 70.5227 57.8103L62.8187 54.8056C60.174 53.7239 60.634 46.8732 60.289 44.1089C58.1043 46.9934 55.6896 52.4018 51.8951 51.8009L44.536 50.599Z" fill="#FEFEFE"/>
</svg>
