<svg width="140" height="140" viewBox="0 0 140 140" fill="none" xmlns="http://www.w3.org/2000/svg">
<g clip-path="url(#clip0_160_925)">
<path d="M131.799 0H8.20084C3.67164 0 0 4.19616 0 9.37238V130.628C0 135.804 3.67164 140 8.20084 140H131.799C136.328 140 140 135.804 140 130.628V9.37238C140 4.19616 136.328 0 131.799 0Z" fill="#6F097A"/>
<path d="M130.042 2.92889H9.37239C5.81373 2.92889 2.92887 5.81375 2.92887 9.37241V130.042C2.92887 133.601 5.81373 136.485 9.37239 136.485H130.042C133.6 136.485 136.485 133.601 136.485 130.042V9.37241C136.485 5.81375 133.6 2.92889 130.042 2.92889Z" fill="#FEFEFE"/>
<path fill-rule="evenodd" clip-rule="evenodd" d="M24.6025 96.067C22.8452 96.6527 23.431 100.167 25.7741 98.9958C27.5314 98.4101 26.3598 95.4812 24.6025 96.067ZM126.527 104.854C124.184 105.439 125.356 108.954 127.113 108.368C128.87 107.782 128.285 104.268 126.527 104.854ZM90.2092 15.2301C88.4519 15.8159 89.0377 19.3306 91.3808 18.7448C93.1381 18.159 92.5523 14.6444 90.2092 15.2301ZM115.397 121.255C113.64 121.841 114.226 124.77 115.983 124.77C118.326 124.184 117.741 120.669 115.397 121.255ZM103.096 33.3891C102.51 33.3891 101.925 32.2176 100.753 32.8034C100.167 34.5607 101.925 33.9749 102.51 35.1465C101.925 36.318 100.753 36.318 101.339 37.4896C102.51 38.0753 103.096 36.9038 103.682 36.318C104.268 36.9038 104.268 38.0753 105.439 38.0753C106.611 36.9038 105.439 36.318 104.854 35.7322C105.439 35.1465 106.025 35.1465 106.611 35.1465C107.197 35.1465 107.782 34.5607 107.782 33.9749C106.611 32.8034 105.439 33.9749 104.854 33.9749C104.854 32.8034 105.439 31.6318 104.854 30.4603H104.268C103.682 31.046 103.682 32.8034 103.096 33.3891ZM43.9331 115.983C41.59 116.569 42.7615 120.084 44.5188 119.498C46.2762 118.912 45.6904 115.398 43.9331 115.983ZM23.431 121.255C21.6736 121.841 22.2594 125.356 24.6025 124.77C26.3598 124.184 25.7741 120.669 23.431 121.255Z" fill="#6F097A"/>
<path fill-rule="evenodd" clip-rule="evenodd" d="M43.9326 34.5607H81.4222L96.0665 49.7908V104.854H43.9326V34.5607ZM48.033 39.2469V100.753H91.3803V51.5481L79.6648 39.2469H48.033Z" fill="#6F097A"/>
<path fill-rule="evenodd" clip-rule="evenodd" d="M79.0791 36.9037L94.3092 50.9623L78.4933 53.3054L79.0791 36.9037ZM82.0079 42.7615L81.4222 50.3766L89.623 49.205L82.0079 42.7615Z" fill="#6F097A"/>
<path fill-rule="evenodd" clip-rule="evenodd" d="M55.0623 63.2636C60.9201 54.477 59.7485 65.0209 65.0205 62.092C66.7778 60.9205 72.0498 59.7489 73.8071 60.9205C78.4933 63.8494 83.7653 59.7489 84.9368 61.5063" fill="#6F097A"/>
<path d="M55.0623 63.2636C60.9201 54.477 59.7485 65.0209 65.0205 62.092C66.7778 60.9205 72.0498 59.7489 73.8071 60.9205C78.4933 63.8494 83.7653 59.7489 84.9368 61.5063" stroke="#6F097A" stroke-width="2.3431" stroke-miterlimit="22.9256"/>
<path fill-rule="evenodd" clip-rule="evenodd" d="M56.8193 73.8075C67.3633 66.1925 64.4344 76.1506 75.5641 72.636C80.2503 71.4645 82.0076 72.636 85.5223 73.8075" fill="#6F097A"/>
<path d="M56.8193 73.8075C67.3633 66.1925 64.4344 76.1506 75.5641 72.636C80.2503 71.4645 82.0076 72.636 85.5223 73.8075" stroke="#6F097A" stroke-width="2.3431" stroke-miterlimit="22.9256"/>
<path fill-rule="evenodd" clip-rule="evenodd" d="M57.9912 85.523C63.2632 79.6652 69.1209 86.6945 71.464 86.6945C74.9786 86.1088 79.0791 78.4937 84.9368 84.9372C84.9368 84.9372 84.9368 85.523 85.5226 85.523" fill="#6F097A"/>
<path d="M57.9912 85.523C63.2632 79.6652 69.1209 86.6945 71.464 86.6945C74.9786 86.1088 79.0791 78.4937 84.9368 84.9372C84.9368 84.9372 84.9368 85.523 85.5226 85.523" stroke="#6F097A" stroke-width="2.3431" stroke-miterlimit="22.9256"/>
<path fill-rule="evenodd" clip-rule="evenodd" d="M125.941 17.5732C123.598 18.159 124.769 21.0878 126.527 20.502C128.284 20.502 127.698 16.9874 125.941 17.5732Z" fill="#6F097A"/>
</g>
<defs>
<clipPath id="clip0_160_925">
<rect width="140" height="140" fill="white"/>
</clipPath>
</defs>
</svg>
