<svg width="131" height="80" viewBox="0 0 131 80" fill="none" xmlns="http://www.w3.org/2000/svg">
<path fill-rule="evenodd" clip-rule="evenodd" d="M80.4492 40.269C80.5558 40.4842 80.6625 40.6994 80.6625 40.9146L81.3023 42.5287C83.4352 42.7439 85.5681 42.2058 87.4877 41.2374C88.5542 40.6994 89.6206 40.0538 90.5804 39.3006C92.9266 37.3637 94.9529 34.7813 96.126 31.9836C97.0858 29.9392 97.8323 27.1415 97.1924 24.8818C96.9791 24.2362 96.6592 23.6982 96.8725 22.945L97.5123 20.6853L99.2187 22.407C101.138 24.4514 102.205 26.9263 101.885 29.8316C101.671 32.0912 100.605 34.2433 99.3253 36.0725C98.1522 37.7941 96.8725 39.3006 95.4861 40.807C95.2728 41.0222 94.6329 41.7754 94.0997 42.3135C102.845 42.2058 116.815 42.5287 124.6 46.6175C127.053 47.9088 129.826 49.9532 129.719 53.0737C129.719 59.9603 115.642 64.4796 110.523 65.7708C106.364 66.9544 92.6067 69.8597 88.3409 65.5556C86.4213 67.7077 83.9685 69.6445 81.089 68.6761C79.1694 67.9229 78.4229 66.4164 78.4229 64.4796C78.2096 64.6948 77.8897 65.0176 77.6764 65.3404C76.7166 66.2012 74.2638 68.8913 72.8774 68.9989C71.8109 68.9989 70.8511 68.5685 70.1046 67.9229C69.5714 67.6001 69.1448 67.1696 68.9315 66.7392C67.3319 67.2772 65.6255 67.2772 64.0259 66.9544C61.4664 68.8913 58.8003 69.2141 56.1342 67.4925L56.0275 67.9229C55.6009 68.5685 55.281 69.3217 54.9611 69.9673C54.2146 71.3661 53.468 72.765 52.7215 74.1638C52.1883 75.2398 51.6551 76.3159 51.1219 77.4995C50.9086 77.8223 50.6953 78.2527 50.482 78.6831C50.482 78.8983 50.482 79.1135 50.3753 79.3287C49.8421 80.0819 49.0956 80.082 48.4557 79.8667C48.0292 79.7591 47.6026 79.6515 47.2826 79.4363H47.176C46.8561 79.1135 46.4295 78.8983 46.0029 78.5755V78.4679C45.363 77.9299 45.0431 77.1767 45.4697 76.3159V76.2083C45.683 75.7778 46.0029 75.2398 46.2162 74.7018C46.2162 74.7018 46.2162 74.7018 46.2162 74.5942C44.1899 72.1194 44.0833 68.7837 44.8298 65.7708C44.9365 65.0176 45.0431 64.372 45.2564 63.6188C44.9365 63.9416 44.7232 64.2644 44.4032 64.5872C41.5238 67.2772 37.4713 70.8281 33.6321 71.9042C32.6723 72.227 31.8191 71.7966 31.0726 71.3661C30.4328 70.9357 29.8995 70.3977 29.5796 69.7521C29.153 69.2141 28.9397 68.5685 29.2597 67.9229C29.8995 65.8784 30.8593 63.834 31.7125 61.7895C33.0989 58.7766 34.5919 55.7638 36.0849 52.7509L38.1112 48.7696C38.7511 47.4784 39.3909 46.1871 40.0308 45.0035C41.0972 42.8515 42.1637 40.5918 43.1235 38.4398C43.6567 36.9333 44.0833 35.1041 43.5501 33.5976C43.1235 32.5216 42.1637 31.6608 41.3105 31.0152C39.3909 29.6163 37.0447 29.2935 34.8052 29.4011C32.3524 29.4011 29.7929 29.9392 27.4467 30.5848C22.541 31.9836 18.062 34.2433 13.9028 37.0409C12.0899 38.3322 10.1702 39.8386 8.67722 41.4526C7.39748 42.9591 6.22439 44.7883 6.0111 46.8328C5.69117 48.5544 5.90446 50.276 7.29084 51.5673C7.82406 51.9977 8.57058 52.2129 9.31709 52.2129C10.1702 52.3205 11.0234 52.2129 11.9832 51.8901C12.6231 51.7825 13.2629 52.1053 13.7962 52.5357C14.0095 52.6433 14.1161 52.7509 14.3294 52.8585C14.756 53.2889 14.9693 54.0421 14.6493 54.6877C14.5427 54.9029 14.3294 55.1182 14.1161 55.2258C12.7297 56.0866 11.1301 56.1942 9.53038 55.979C8.03735 55.6562 6.75762 55.1182 5.47788 54.2573C2.59847 52.4281 0.892151 49.738 0.892151 46.1871C0.892151 43.1743 2.27853 40.4842 4.19814 38.2246C6.0111 36.0725 8.57058 34.2433 10.8101 32.6292C15.9291 29.0783 21.5812 26.6035 27.7666 25.5274C30.966 24.9894 34.272 24.8818 37.3647 25.6351C40.3507 26.3883 43.0168 27.7871 45.363 29.8316C46.2162 30.5848 47.0693 31.4456 47.7092 32.414C48.4557 33.49 48.989 34.7813 48.989 36.1801C49.0956 37.0409 48.8823 37.9017 48.669 38.655C48.5624 39.3006 48.2424 40.0538 48.0292 40.6994V40.807L47.2826 42.5287L46.4295 44.3579C44.6165 48.662 42.4836 52.8585 40.3507 57.055L38.7511 60.1755L37.258 63.4035C36.9381 63.9416 36.6182 64.5872 36.4049 65.2328C38.1112 63.834 39.9241 62.1123 41.0972 60.9287C42.6969 59.3147 44.1899 57.7006 45.683 56.0866C46.9627 54.6877 48.1358 53.2889 49.4155 51.8901C51.975 48.8772 54.3212 45.6491 56.6674 42.4211C57.9471 40.6994 59.1202 38.9778 60.3999 37.2561L62.2129 34.5661C62.8528 33.5976 63.4926 32.7368 64.1325 31.7684C64.6657 31.0152 65.6255 31.0152 66.3721 31.338C66.692 31.5532 67.0119 31.7684 67.3319 31.876V31.9836H67.4385C67.6518 32.1988 67.9717 32.414 68.2917 32.6292V32.7368H68.3983C68.9315 33.3824 69.2515 34.2433 68.7182 34.9965C67.8651 36.1801 67.1186 37.3637 66.2654 38.5474L64.879 40.4842L63.386 42.5287C61.893 44.6807 60.3999 46.8328 59.0136 49.0924L60.08 49.2C60.7199 49.2 61.4664 49.5228 62.1063 49.8456C62.6395 50.1684 63.1727 50.5988 63.386 51.1369C64.3458 50.4912 65.199 49.9532 66.1588 49.5228C67.4385 48.8772 68.6116 49.2 69.7847 49.8456C70.6379 50.4912 71.491 51.3521 71.7043 52.4281C72.3442 54.9029 71.0644 57.593 69.8913 59.6375C69.1448 61.0363 68.2917 62.2199 67.3319 63.5112C67.6518 63.4036 67.9717 63.2959 68.2917 63.1883C69.1448 62.6503 70.2113 61.3591 70.7445 60.6059C71.0644 59.9603 71.491 59.2071 71.8109 58.5614C72.4508 57.2702 73.1973 55.8714 73.8372 54.5801C74.3704 53.3965 75.0103 52.2129 75.5435 50.9217V50.5988V50.4912C75.7568 49.6304 76.5033 48.9848 77.3565 49.2C77.9963 49.2 78.5296 49.5228 79.0628 49.8456C79.4894 50.1684 79.9159 50.4912 80.3425 50.9217L80.4492 51.0293L80.5558 51.1369V51.2445C80.9824 51.6749 81.089 52.3205 80.8758 52.8585H80.7691V52.9661C79.9159 54.7953 78.9561 56.7322 77.9963 58.5614C79.2761 57.055 80.4492 55.5486 81.6223 54.0421C82.5821 52.8585 83.4352 51.6749 84.2884 50.4912L84.715 49.738V49.6304C85.6748 48.5544 86.9545 49.3076 87.9143 49.8456C88.8741 50.4912 90.0472 51.4597 89.514 52.7509H89.4073C89.194 53.2889 88.8741 53.8269 88.5542 54.3649L88.1276 55.1182L87.5944 56.0866C86.8479 57.2702 86.208 58.5614 85.5681 59.8527C84.9283 61.1439 84.0751 63.0807 83.7552 64.8024C85.0349 64.0492 86.3146 62.5427 87.0611 61.5743C87.2744 58.669 89.4073 55.8714 91.2203 53.8269C93.7798 50.8141 97.2991 48.5544 101.458 49.3076C102.418 49.4152 103.378 49.9532 104.124 50.5988C104.977 51.3521 105.511 52.4281 105.404 53.6117C105.404 54.2573 105.191 54.7953 104.977 55.2258C104.658 55.8714 104.338 56.4094 104.018 56.9474L103.911 57.055C102.845 58.3462 101.352 58.9918 99.8585 58.2386C99.6452 58.131 99.5386 58.0234 99.3253 57.9158L99.112 57.8082C98.4721 57.2702 97.9389 56.517 98.3655 55.6562L98.4721 55.441L98.6854 55.2258C99.0054 55.0106 99.3253 54.9029 99.6452 54.9029H99.8585C99.9652 54.7953 100.072 54.4725 100.072 54.4725C100.178 54.2573 100.285 54.0421 100.392 53.7193C98.2589 54.4725 96.5525 56.0866 95.1662 57.9158C94.4196 58.9918 92.2867 62.0047 93.1399 63.5112C93.9931 64.91 97.619 64.8024 99.112 64.6948C102.845 64.4796 107.004 63.4036 110.523 62.1123C114.149 60.9287 117.988 59.2071 121.081 57.055C122.361 56.1942 125.133 54.0421 125.027 52.3205C124.92 50.7064 122.041 49.5228 120.761 49.2C115.429 47.2632 107.324 47.2632 101.671 47.3708C94.2064 47.4784 85.5681 48.7696 78.5296 47.6936C75.0103 47.2632 65.7322 45.6491 66.1588 40.4842C66.3721 38.3322 68.185 36.7181 69.998 35.8573C73.4106 34.2433 79.0628 36.7181 80.4492 40.269ZM78.6362 42.3135C78.4229 42.0982 78.2096 41.883 78.103 41.5602C77.4631 41.0222 75.9701 40.3766 75.3302 40.1614C74.797 40.0538 72.8774 39.5158 72.4508 40.1614C72.4508 40.269 72.2375 40.4842 72.3442 40.5918C72.4508 40.9146 73.304 41.345 73.6239 41.4526C74.6904 41.883 75.8634 42.0982 77.0365 42.3135C77.5698 42.4211 78.2096 42.4211 78.7429 42.5287L78.6362 42.3135ZM58.2671 50.1684C58.0538 50.4912 57.8405 50.8141 57.6272 51.1369C54.5345 55.8714 51.0152 62.1123 49.8421 67.8153C52.7215 62.1123 55.6009 56.4094 58.4803 50.5988L58.2671 50.1684ZM58.9069 62.2199C59.6534 62.1123 60.2933 62.1123 60.9332 62.1123C62.4262 60.7135 63.7059 58.9918 64.879 57.2702C65.5189 56.3018 66.2654 54.903 66.692 53.6117C65.9455 54.0421 65.199 54.5801 64.6657 55.0106C63.9192 55.6562 63.1727 56.3018 62.5328 56.9474C62.2129 57.3778 61.893 57.7006 61.573 58.0234L61.0398 58.4538L60.7199 58.7766C60.1867 59.7451 59.7601 60.7135 59.2269 61.5743V61.6819L58.9069 62.2199Z" fill="#F8F8F8"/>
<path d="M67.6518 34.1357C66.9053 35.1041 66.1588 36.2877 65.199 37.7941L63.8126 39.731L62.3196 41.7754C59.8667 45.3263 57.8405 48.2316 56.4541 50.3836C51.975 57.4854 49.2022 63.4035 48.3491 68.2457C47.9225 71.0433 48.2424 73.303 49.4155 74.917C49.6288 75.1322 49.6288 75.1322 49.3089 75.1322L48.989 75.0246C48.8823 75.0246 48.7757 74.917 48.7757 74.917C48.1358 74.5942 47.6026 74.2714 47.176 73.7334C45.683 71.9041 45.363 69.3217 46.1095 66.0936C46.5361 63.5112 47.7092 60.4983 49.4155 57.055C49.4155 57.1626 49.3089 57.2702 49.2022 57.3778C49.0956 57.4854 48.8823 57.7006 48.669 57.9158C48.3491 58.3462 47.9225 58.8842 47.3893 59.4223C46.1095 60.8211 44.7232 62.2199 43.4434 63.5112C39.3909 67.4924 35.9783 69.8597 33.3122 70.6129C32.8856 70.7205 32.459 70.6129 31.8191 70.1825C31.2859 69.8597 30.8593 69.4293 30.646 68.9989C30.4328 68.7837 30.4328 68.5685 30.4328 68.4609C31.6059 65.3404 33.8454 60.2831 37.258 53.3965L39.2843 49.4152C40.1374 47.8012 40.7773 46.6175 41.2039 45.5415C42.5903 42.7439 43.6567 40.5918 44.2966 38.8702C45.2564 36.6105 45.4697 34.6737 44.8298 33.0596C44.4032 31.9836 43.5501 30.9076 42.057 29.9392C40.2441 28.5403 37.7913 27.8947 34.8052 28.0023C32.5657 28.1099 30.0062 28.5403 27.0201 29.2935C22.1145 30.6924 17.5287 32.952 13.1563 35.9649C10.8101 37.5789 8.99716 39.193 7.71742 40.5918C5.90446 42.6363 4.94465 44.5731 4.62472 46.6175C4.30479 49.2 4.83801 51.2445 6.33104 52.5357C7.07755 53.1813 7.93071 53.5041 9.21045 53.6117C10.2769 53.6117 11.2367 53.5041 12.3031 53.2889C12.4098 53.1813 12.6231 53.2889 13.0497 53.6117C13.3696 53.8269 13.5829 54.0421 13.4762 54.0421C12.4098 54.6877 11.1301 54.9029 9.74367 54.5801C8.57058 54.3649 7.39748 53.9345 6.22439 53.1813C3.55827 51.3521 2.17189 49.0924 2.27853 46.1871C2.27853 43.8199 3.23834 41.4526 5.26459 39.0854C6.75762 37.3637 8.89051 35.6421 11.5566 33.8128C16.7822 30.262 22.2211 27.8947 27.9799 26.8187C31.3926 26.2807 34.3786 26.3883 37.0447 27.0339C39.8175 27.6795 42.2703 28.9707 44.4032 30.8C45.363 31.6608 46.1095 32.414 46.6428 33.1672C47.2826 34.2433 47.7092 35.2117 47.7092 36.1801C47.7092 36.8257 47.6026 37.4713 47.3893 38.3322C47.2826 38.8702 47.0694 39.5158 46.7494 40.269L46.0029 41.9906L45.2564 43.8199C43.9767 46.5099 41.9504 50.7064 39.1776 56.4094L37.578 59.6375L36.0849 62.7579C34.9118 65.0176 33.952 67.062 33.2055 68.7837C35.2318 68.0305 38.2178 65.6632 42.057 61.8971C43.5501 60.3907 45.0431 58.7766 46.7494 56.9474C48.0292 55.5486 49.2022 54.1497 50.3753 52.7509C52.6149 50.1684 55.0677 47.048 57.7338 43.1743C58.6936 41.9906 59.8667 40.269 61.4664 38.0093L63.386 35.3193C64.0259 34.2433 64.6657 33.3824 65.3056 32.5216C65.3056 32.414 65.5189 32.5216 65.7322 32.6292C66.0521 32.7368 66.2654 32.8444 66.5853 33.0596C66.9053 33.2748 67.2252 33.49 67.4385 33.7052C67.6518 33.9204 67.6518 34.0281 67.6518 34.1357ZM121.294 47.9088C110.203 44.0351 86.208 47.4784 78.6362 46.4023C64.6657 44.3579 66.1588 39.193 70.6378 37.0409C72.3442 36.2877 75.5435 37.0409 77.3565 38.3322C79.0628 39.5158 79.3827 41.2374 79.3827 41.2374C79.7027 40.3766 72.984 36.7181 71.2777 39.4082C69.1448 42.9591 77.1432 44.0351 81.089 43.9275C92.1801 44.5731 100.392 31.4456 98.4721 24.559C98.4721 24.2362 98.1522 23.5906 98.1522 23.3754C107.43 33.2748 86.6346 43.8199 93.4598 43.7123C110.736 43.4971 119.375 45.3263 123.96 47.8012C143.69 58.3462 91.6469 72.8726 88.5542 63.4035C87.701 60.9287 89.4073 57.9158 92.1801 54.7953C95.1662 51.4597 98.1522 50.0608 101.245 50.5988C101.885 50.7064 102.631 51.0293 103.165 51.5673C103.804 52.2129 104.124 52.8585 104.124 53.5041C104.018 53.8269 103.911 54.2573 103.698 54.7953C103.484 55.2258 103.165 55.7638 102.951 56.0866C102.098 57.1626 101.245 57.3778 100.392 56.9474C100.285 56.9474 100.285 56.9474 100.178 56.8398L99.9652 56.6246C99.6452 56.517 99.5386 56.3018 99.5386 56.3018C99.6452 56.3018 99.6452 56.1942 99.6452 56.1942L99.8585 56.3018C100.498 56.3018 100.925 55.8714 101.352 55.0105C101.778 54.1497 101.991 53.1813 101.991 52.1053C99.112 52.2129 96.4459 53.9345 94.0997 57.055C77.9963 78.6831 144.969 55.979 121.294 47.9088ZM70.4246 52.7509C70.8511 54.3649 70.2113 56.4094 68.7182 58.9918C67.6518 60.9287 66.2654 62.7579 64.5591 64.5872C66.2654 65.0176 67.7584 65.0176 68.9315 64.372C69.7847 63.9416 70.7445 62.8655 71.8109 61.4667C72.5575 61.2515 72.8774 61.2515 72.6641 61.4667C71.491 63.2959 70.3179 64.5872 69.2515 65.1252C67.7584 65.8784 65.9455 65.986 63.7059 65.448C61.0398 67.8153 58.3737 67.8153 55.7076 65.448L55.281 66.3088L54.7478 67.2772C54.3212 68.1381 54.0013 68.7837 53.6813 69.3217C52.8282 71.0433 52.1883 72.3346 51.5484 73.5182C49.9488 76.7463 49.0956 78.4679 49.2022 78.5755C49.2022 78.6831 49.0956 78.6831 48.8823 78.5755C48.5624 78.5755 48.2424 78.3603 47.9225 78.1451C47.4959 77.9299 47.176 77.7147 46.9627 77.4995C46.6428 77.2843 46.5361 77.0691 46.6428 76.8539C50.482 69.7521 54.8544 61.0363 59.9734 50.7064V50.5988V50.4912C60.3999 50.4912 60.8265 50.7064 61.3598 51.0293C61.9996 51.4597 62.3196 51.7825 62.4262 52.1053C62.4262 52.3205 62.3196 52.6433 62.1063 53.1813L61.6797 53.8269L61.4664 54.3649C63.2794 52.7509 64.9857 51.5673 66.7986 50.7064C67.4385 50.3836 68.185 50.4912 69.0382 51.0293C69.7847 51.5673 70.2113 52.1053 70.4246 52.7509ZM59.6534 57.9158C59.2269 58.7766 58.6936 59.7451 58.0538 61.0363L57.3073 62.4351C56.9873 63.0807 56.774 63.5111 56.5607 63.834C58.587 63.5111 60.1867 63.4035 61.4664 63.5112C63.0661 62.0047 64.5591 60.1755 66.0521 58.0234C67.6518 55.3334 68.505 53.1813 68.2917 51.5673C67.1186 51.6749 65.6255 52.4281 63.8126 54.0421C63.0661 54.5801 62.4262 55.2258 61.573 56.0866C61.2531 56.3018 60.9332 56.6246 60.5066 57.055L60.08 57.4854L59.6534 57.9158ZM56.8807 65.8784C57.2006 65.986 57.7338 65.8784 58.4803 65.5556C59.1202 65.2328 59.7601 64.91 60.1867 64.4796H59.4401C58.9069 64.5872 58.3737 64.5872 58.0538 64.6948C56.774 64.91 56.4541 65.2328 56.8807 65.8784ZM88.2342 52.1053C88.0209 52.5357 87.8077 52.9661 87.3811 53.6117L86.9545 54.4725L86.4213 55.441C85.5681 56.9474 84.8216 58.2386 84.395 59.3147C82.7954 62.5427 82.0488 65.0176 82.2621 66.6316C84.0751 66.7392 86.3146 65.0176 88.7675 61.4667C89.514 61.2515 89.8339 61.2515 89.6206 61.4667C86.6346 66.2012 83.9685 68.1381 81.6223 67.3848C80.2359 66.8468 79.7027 65.7708 79.8093 64.1568C79.9159 63.5112 80.0226 62.7579 80.3425 61.8971L80.7691 60.7135L81.1957 59.6375C80.9824 59.8527 80.6625 60.1755 80.3425 60.6059L79.8093 61.1439L79.1694 61.7895C78.2096 62.8655 77.3565 63.7264 76.7166 64.372C74.5837 66.524 73.304 67.6 72.8774 67.6C72.2375 67.6 71.5976 67.3848 70.8511 66.8468C70.1046 66.3088 69.7847 65.7708 69.998 65.2328C70.3179 64.4796 71.2777 62.4351 72.984 59.207C73.8372 57.4854 74.5837 56.1942 75.0103 55.2258C75.7568 53.7193 76.3967 52.4281 76.8232 51.3521L76.9299 51.0293V50.7064C76.9299 50.5988 77.0365 50.4912 77.1432 50.4912C77.4631 50.4912 77.8897 50.7064 78.3163 51.0293C78.7429 51.2445 79.0628 51.5673 79.2761 51.7825L79.3827 51.9977L79.4894 52.1053C79.596 52.1053 79.596 52.2129 79.596 52.3205C78.5296 54.6877 77.1432 57.3778 75.5435 60.6059C75.2236 61.1439 74.9036 61.6819 74.5837 62.3275L74.1571 63.0807L73.8372 63.7264C73.304 64.8024 72.984 65.3404 72.8774 65.5556C73.8372 65.448 75.8634 63.4035 79.0628 59.5299C80.1292 58.131 81.409 56.517 82.6887 54.7953C83.7552 53.5041 84.715 52.2129 85.4615 51.1369L85.7814 50.4912C85.8881 50.3836 86.4213 50.5988 87.1678 51.0293C88.021 51.5673 88.3409 51.8901 88.2342 52.1053Z" fill="#5E5A5A"/>
<path fill-rule="evenodd" clip-rule="evenodd" d="M105.617 29.9391L100.925 30.4772C88.2342 32.1988 74.6903 33.9204 61.9996 31.876C58.4803 31.2304 54.6411 29.7239 52.4016 26.8187C50.6953 24.6666 49.9487 21.869 51.1218 19.2865C52.1883 16.9192 54.5345 15.7356 57.094 15.5204L61.1465 15.09L58.0538 17.8877C57.3072 18.5333 56.3474 18.9637 55.6009 19.8245C54.2145 21.1157 54.7478 22.1918 56.0275 23.3754C64.6657 31.4456 99.6452 25.3122 110.63 23.0526C113.296 22.5146 116.069 22.1918 118.735 22.0842C124.174 22.0842 130.146 23.5906 130.786 30.0468C131.425 35.7497 125.027 41.2374 120.014 42.421L116.388 43.2819L118.521 40.269C119.481 39.0854 120.761 38.2245 122.041 37.3637C123.32 36.3953 124.387 35.4269 125.133 34.028C125.453 33.2748 125.56 32.6292 125.453 31.876C125.24 30.1544 123.854 28.7555 122.361 28.1099C120.121 27.0339 117.668 27.2491 115.429 28.1099C109.99 30.3696 107.43 35.4269 106.364 41.0222C105.831 43.2819 105.724 45.5415 105.617 47.8012C105.617 48.5544 105.617 49.3076 105.617 50.0608C105.511 50.9216 105.297 52.2129 104.124 52.2129L103.484 51.2445L102.738 50.814C102.738 49.6304 102.418 48.3392 102.311 47.1556C102.098 45.4339 101.885 43.7123 101.991 41.9906C102.098 37.5789 103.484 33.5976 105.617 29.9391Z" fill="#F8F8F8"/>
<path fill-rule="evenodd" clip-rule="evenodd" d="M62.2129 30.4772C74.6904 32.5216 88.2342 30.8 100.712 29.1859L108.177 28.2175C100.818 39.3006 103.911 46.2947 104.124 50.814C104.658 50.814 102.311 31.9836 114.895 26.8187C122.361 23.8058 128.866 29.724 126.306 34.6737C124.387 38.2246 121.187 39.0854 119.694 41.1298C124.174 40.0538 129.932 35.1041 129.506 30.1544C128.653 21.6538 116.495 23.2678 110.95 24.4514C99.4319 26.8187 64.3458 32.952 55.1744 24.4514C50.6953 20.2549 56.0275 17.8877 57.2006 16.8116C49.4155 17.4573 49.6288 28.3251 62.2129 30.4772Z" fill="#897AC7"/>
<path fill-rule="evenodd" clip-rule="evenodd" d="M78.8495 6.15901L83.4352 9.27949L81.089 10.2479C80.2359 10.6783 79.2761 10.8935 78.3163 11.2163C78.2096 11.3239 77.6764 11.4315 77.4631 11.5391C77.3565 11.8619 77.0365 13.5836 77.0365 13.9064L76.5033 17.6725L74.5837 14.3368C74.2638 14.014 73.5173 12.1848 73.304 11.9695C73.1973 11.9695 72.6641 12.0772 72.5574 12.0772L56.2408 17.4573L69.678 7.98825C69.8913 7.77305 70.7445 7.23504 70.9578 6.91223C70.9578 6.80463 70.7445 6.48182 70.7445 6.26661C70.4246 5.7286 70.2113 5.08299 69.998 4.43737L69.0382 1.6397L74.4771 3.89936C74.9036 4.00696 76.7166 2.17772 77.0365 1.96251L79.4894 0.0256653L79.1694 3.14614C79.1694 3.79175 78.7428 5.621 78.8495 6.15901Z" fill="#F8F8F8"/>
<path fill-rule="evenodd" clip-rule="evenodd" d="M71.2777 4.00694C72.3442 7.12741 73.304 7.01981 70.5312 9.06426L64.4525 13.3684L72.1309 10.7859C74.5837 10.0327 74.5837 11.8619 75.6502 13.6912C76.29 9.49467 76.1834 10.7859 80.5558 9.06426L77.8897 7.23501C77.0365 6.5894 77.7831 4.11454 77.8897 3.03851C76.8232 3.89933 75.4369 5.72858 74.0505 5.08296L71.2777 4.00694Z" fill="#5E5A5A"/>
<path fill-rule="evenodd" clip-rule="evenodd" d="M92.0734 78.3603H83.7551L85.0349 70.3977H92.6067C93.0333 70.3977 93.5665 70.3977 93.993 70.5053C94.4196 70.7205 94.8462 70.9357 95.0595 71.2586L95.5927 70.3977H98.2588L98.3655 71.151C98.5788 71.0433 98.6854 70.9357 98.7921 70.8281C99.4319 70.3977 100.178 70.2901 100.818 70.2901C101.565 70.2901 102.311 70.3977 102.951 70.8281C103.378 71.1509 103.591 71.5814 103.804 72.0118L104.551 70.3977H107.644L107.75 71.0433L107.857 70.3977H121.507L121.401 70.6129L121.721 70.3977H127.16L128.439 78.3603H125.027L124.813 76.9615L124.28 78.0375L124.387 78.3603H120.548L120.761 78.0375L120.334 77.0691L120.121 78.3603H108.603L108.39 79.4363H105.297V78.3603H104.444L104.124 79.4363H101.032L101.138 78.3603C100.925 78.4679 100.605 78.4679 100.392 78.4679C99.9652 78.4679 99.6452 78.4679 99.3253 78.3603H96.2326L95.9127 76.9615L95.2728 78.3603H92.0734ZM92.2867 76.9615L92.7133 76.2083C92.6067 76.2083 92.5 76.2083 92.5 76.2083L92.2867 76.9615ZM78.7428 70.3977H84.715L84.1817 73.6258H83.8618L83.5419 75.0246H84.1817L83.6485 78.3603H65.199V78.0375L64.9857 78.3603H57.2006C56.8807 78.3603 56.5607 78.4679 56.2408 78.4679C55.281 78.4679 54.4278 78.0375 53.788 77.2843C53.2547 76.5311 53.0414 75.6703 53.0414 74.8094C53.0414 73.7334 53.2547 72.765 53.8946 71.7966C54.5345 70.8281 55.4943 70.2901 56.774 70.2901C57.3072 70.2901 57.9471 70.3977 58.4803 70.7205V70.3977H65.0923V70.5053C65.5189 70.3977 65.9455 70.3977 66.2654 70.3977H78.7428ZM56.6674 73.7334C56.5607 73.841 56.5607 73.9486 56.5607 73.9486C56.4541 74.2714 56.3474 74.5942 56.3474 74.917L56.4541 74.8094L56.6674 74.1638V73.7334Z" fill="#F8F8F8"/>
<path d="M58.587 73.303L57.9471 73.5182C57.9471 72.9802 57.7338 72.6574 57.5205 72.4422C57.3072 72.227 57.094 72.1194 56.774 72.1194C56.4541 72.1194 56.1342 72.227 55.8142 72.4422C55.6009 72.765 55.3876 73.0878 55.281 73.5182C55.0677 74.0562 55.0677 74.4866 55.0677 74.917C55.0677 75.4551 55.1744 75.8855 55.3876 76.1007C55.6009 76.4235 55.9209 76.5311 56.2408 76.5311C56.8807 76.5311 57.3072 76.1007 57.7338 75.3474L58.1604 75.4551C57.8405 76.5311 57.2006 77.0691 56.2408 77.0691C55.6009 77.0691 55.1744 76.8539 54.8544 76.4235C54.5345 75.9931 54.3212 75.455 54.3212 74.8094C54.3212 73.9486 54.5345 73.303 55.0677 72.5498C55.4943 71.9042 56.0275 71.5814 56.774 71.5814C57.2006 71.5814 57.6272 71.689 57.9471 72.0118C58.2671 72.3346 58.4803 72.765 58.587 73.303ZM103.271 76.4235L105.404 71.689H106.471L107.11 76.4235H107.537L107.217 78.1451H106.684L106.79 76.9615H103.378L103.058 78.1451H102.525L102.845 76.4235H103.271ZM103.804 76.4235H106.471L105.937 72.227H105.724L103.804 76.4235ZM111.696 74.4866H109.137L108.71 76.9615H108.07L108.923 71.689H109.563L109.243 73.9486H111.803L112.123 71.689H112.763L111.909 76.9615H111.27L111.696 74.4866ZM113.936 76.5311L113.829 76.9615H113.189L114.042 71.689H114.682L114.256 74.8094C114.149 75.1322 114.149 75.4551 114.042 75.8855C114.362 75.4551 114.576 75.0246 114.895 74.8094L117.242 72.227L117.348 71.689H117.988L117.135 76.9615H116.495L116.922 73.9486C117.028 73.5182 117.135 73.1954 117.135 72.9802C116.815 73.4106 116.602 73.7334 116.282 74.0562L113.936 76.5311ZM123 71.689L121.187 73.5182L122.467 76.9615H121.827L120.761 74.0562L119.268 75.5627L119.055 76.9615H118.415L119.268 71.689H119.908L119.375 74.7018L122.254 71.689H123ZM125.987 75.4551H124.067L123.32 76.9615H122.681L125.24 71.689H125.987L126.84 76.9615H126.2L125.987 75.4551ZM125.88 74.917L125.453 72.5498L124.28 74.917H125.88ZM97.0858 75.4551H95.1662L94.4196 76.9615H93.8864L96.3392 71.689H97.0858L98.0456 76.9615H97.2991L97.0858 75.4551ZM96.9791 74.917L96.5525 72.5498L95.3794 74.917H96.9791ZM98.4721 75.5627L99.0054 75.4551C99.112 76.2083 99.5386 76.5311 100.392 76.5311C100.818 76.5311 101.138 76.4235 101.352 76.2083C101.671 75.9931 101.778 75.7779 101.778 75.4551C101.778 75.1322 101.671 74.917 101.458 74.7018C101.245 74.5942 100.925 74.4866 100.498 74.4866H100.178L100.285 73.9486H100.712C101.032 73.9486 101.352 73.841 101.565 73.7334C101.778 73.5182 101.885 73.303 101.885 72.9802C101.885 72.6574 101.778 72.4422 101.565 72.3346C101.458 72.227 101.138 72.1194 100.818 72.1194C100.392 72.1194 100.178 72.227 99.9652 72.4422C99.7519 72.5498 99.5386 72.765 99.4319 73.1954L98.8987 73.0878C99.0054 72.5498 99.2187 72.1194 99.5386 71.9042C99.8585 71.689 100.285 71.5814 100.818 71.5814C101.352 71.5814 101.778 71.689 102.098 72.0118C102.418 72.227 102.525 72.4422 102.525 72.8726C102.525 73.5182 102.205 73.9486 101.352 74.1638C102.098 74.2714 102.418 74.7018 102.418 75.3474C102.418 75.8855 102.205 76.2083 101.885 76.6387C101.565 76.9615 101.032 77.0691 100.392 77.0691C99.2187 77.0691 98.5788 76.5311 98.4721 75.5627ZM59.4401 76.5311V76.9615H58.8003L59.6534 71.689H60.2933L59.7601 74.8094C59.7601 75.1322 59.6534 75.4551 59.5468 75.8855C59.8667 75.4551 60.1867 75.0246 60.3999 74.8094L62.7461 72.227L62.8528 71.689H63.4926L62.6395 76.9615H61.9996L62.5328 73.9486C62.5328 73.5182 62.6395 73.1954 62.7461 72.9802C62.4262 73.4106 62.1063 73.7334 61.893 74.0562L59.4401 76.5311ZM67.1186 74.7018H65.6255L64.2392 76.9615H63.4926L65.0923 74.5942C64.5591 74.379 64.3458 73.9486 64.3458 73.4106C64.3458 72.9802 64.4524 72.6574 64.5591 72.4422C64.7724 72.1194 64.9857 72.0118 65.3056 71.9042C65.5189 71.7966 65.8388 71.689 66.2654 71.689H68.2917L67.4385 76.9615H66.7986L67.1186 74.7018ZM67.5452 72.227H66.1588C65.6255 72.227 65.3056 72.3346 65.199 72.6574C65.0923 72.8726 64.9857 73.0878 64.9857 73.303C64.9857 73.9486 65.3056 74.1638 65.8388 74.1638H67.2252L67.5452 72.227ZM72.3442 74.4866H69.7847L69.3581 76.9615H68.7182L69.5714 71.689H70.2113L69.8913 73.9486H72.4508L72.7707 71.689H73.4106L72.5575 76.9615H71.9176L72.3442 74.4866ZM74.5837 76.5311L74.4771 76.9615H73.8372L74.6904 71.689H75.3302L74.9036 74.8094C74.797 75.1322 74.6904 75.4551 74.6904 75.8855C75.0103 75.4551 75.2236 75.0246 75.5435 74.8094L77.8897 72.227L77.9963 71.689H78.6362L77.6764 76.9615H77.0365L77.5698 73.9486C77.6764 73.5182 77.6764 73.1954 77.7831 72.9802C77.4631 73.4106 77.1432 73.7334 76.9299 74.0562L74.5837 76.5311ZM79.0628 76.9615L79.9159 71.689H83.1153L83.0086 72.227H80.4492L80.1292 73.9486H82.3688L82.2621 74.4866H80.0226L79.7027 76.4235H82.5821L82.4754 76.9615H79.0628ZM85.3548 76.9615L86.208 71.689H89.9406L88.9808 76.9615H88.3409L89.194 72.3346H86.7412L85.9947 76.9615H85.3548ZM91.3269 74.8094L91.007 76.9615H90.3671L91.2203 71.689H92.6067C93.0333 71.689 93.3532 71.7966 93.5665 71.7966C93.8864 71.9042 94.0997 72.1194 94.2064 72.3346C94.4196 72.5498 94.5263 72.8726 94.5263 73.1954C94.5263 73.6258 94.313 73.9486 93.9931 74.2714C93.7798 74.7018 93.1399 74.8094 92.3934 74.8094H91.3269ZM91.4336 74.379H92.0735C92.6067 74.379 92.9266 74.2714 93.0333 74.2714C93.2466 74.2714 93.4598 74.0562 93.5665 73.9486C93.7798 73.7334 93.7798 73.5182 93.7798 73.1954C93.7798 72.9802 93.7798 72.765 93.6731 72.6574C93.5665 72.4422 93.4598 72.3346 93.3532 72.3346C93.1399 72.227 92.9266 72.227 92.6067 72.227H91.7535L91.4336 74.379Z" fill="#897AC7"/>
</svg>
