<svg width="40" height="40" viewBox="0 0 40 40" fill="none" xmlns="http://www.w3.org/2000/svg">
<path d="M20 39.8233C31.0457 39.8233 40 30.9085 40 19.9116C40 8.91474 31.0457 0 20 0C8.95431 0 0 8.91474 0 19.9116C0 30.9085 8.95431 39.8233 20 39.8233Z" fill="url(#paint0_linear_223_59)"/>
<path d="M13.5382 21.3672L15.911 27.9058C15.911 27.9058 16.2077 28.5176 16.5253 28.5176C16.843 28.5176 21.5678 23.624 21.5678 23.624L26.822 13.5205L13.6228 19.6793L13.5382 21.3672Z" fill="#EAC8E0"/>
<path d="M16.6843 23.0439L16.2288 27.8636C16.2288 27.8636 16.0382 29.3403 17.5212 27.8636C19.0042 26.3868 20.4237 25.248 20.4237 25.248" fill="#6F097A" fill-opacity="0.5"/>
<path d="M13.581 21.6003L8.7 20.017C8.7 20.017 8.11667 19.7813 8.3045 19.247C8.34317 19.1369 8.42117 19.0431 8.6545 18.882C9.736 18.1315 28.6722 11.3554 28.6722 11.3554C28.6722 11.3554 29.2068 11.176 29.5222 11.2953C29.6002 11.3194 29.6704 11.3636 29.7256 11.4235C29.7808 11.4834 29.819 11.5569 29.8363 11.6363C29.8704 11.7766 29.8847 11.921 29.8787 12.0653C29.8772 12.19 29.862 12.3057 29.8505 12.4871C29.7352 14.3397 26.2838 28.1663 26.2838 28.1663C26.2838 28.1663 26.0773 28.9754 25.3375 29.0031C25.1557 29.0089 24.9746 28.9783 24.8049 28.9129C24.6352 28.8476 24.4805 28.7489 24.35 28.6228C22.8982 27.3795 17.8802 24.022 16.7713 23.2836C16.7463 23.2667 16.7253 23.2446 16.7096 23.2188C16.6939 23.193 16.6839 23.1642 16.6803 23.1343C16.6648 23.0565 16.7498 22.9601 16.7498 22.9601C16.7498 22.9601 25.4875 15.2277 25.72 14.416C25.738 14.3531 25.67 14.3221 25.5787 14.3496C24.9983 14.5622 14.938 20.8873 13.8277 21.5853C13.7477 21.6094 13.6633 21.6145 13.581 21.6003Z" fill="white"/>
<defs>
<linearGradient id="paint0_linear_223_59" x1="20" y1="39.8233" x2="20" y2="0" gradientUnits="userSpaceOnUse">
<stop stop-color="#6F097A"/>
<stop offset="1" stop-color="#6F097A"/>
</linearGradient>
</defs>
</svg>
