<svg width="40" height="45" viewBox="0 0 40 45" fill="none" xmlns="http://www.w3.org/2000/svg">
<path d="M29.6443 16.2439C32.5628 18.3198 36.1381 19.5413 39.9995 19.5413V12.1473C39.2687 12.1474 38.5398 12.0716 37.8249 11.9209V17.741C33.9637 17.741 30.3889 16.5196 27.4696 14.4438V29.5328C27.4696 37.0811 21.3202 43.1997 13.735 43.1997C10.9048 43.1997 8.27425 42.3483 6.08904 40.8881C8.5831 43.4257 12.0613 44.9998 15.9092 44.9998C23.4949 44.9998 29.6446 38.8812 29.6446 31.3326V16.2439H29.6443ZM32.327 8.78424C30.8355 7.1628 29.8562 5.06739 29.6443 2.75083V1.7998H27.5835C28.1022 4.74416 29.8716 7.25963 32.327 8.78424ZM10.8867 35.0958C10.0534 34.0085 9.60303 32.6785 9.60505 31.311C9.60505 27.8587 12.4177 25.0595 15.8878 25.0595C16.5345 25.0593 17.1774 25.1579 17.7937 25.3524V17.7932C17.0734 17.695 16.3465 17.6533 15.6199 17.6686V23.5523C15.0032 23.3577 14.36 23.2589 13.7132 23.2595C10.2431 23.2595 7.43054 26.0584 7.43054 29.5111C7.43054 31.9525 8.83642 34.0661 10.8867 35.0958Z" fill="#AD009C"/>
<path d="M27.4696 14.4436C30.3889 16.5194 33.9637 17.7408 37.8249 17.7408V11.9207C35.6696 11.4639 33.7616 10.3431 32.327 8.78424C29.8714 7.25948 28.1022 4.744 27.5835 1.7998H22.1703V31.3323C22.1581 34.7751 19.3502 37.5629 15.8875 37.5629C13.8471 37.5629 12.0343 36.595 10.8862 35.0958C8.83611 34.0661 7.43023 31.9523 7.43023 29.5113C7.43023 26.0588 10.2428 23.2597 13.7129 23.2597C14.3777 23.2597 15.0185 23.3627 15.6196 23.5525V17.6687C8.16769 17.8219 2.17451 23.8808 2.17451 31.3324C2.17451 35.0522 3.66695 38.4243 6.0892 40.8882C8.27441 42.3483 10.905 43.1999 13.7352 43.1999C21.3206 43.1999 27.4698 37.0809 27.4698 29.5328V14.4436H27.4696Z" fill="#6F097A"/>
<path d="M37.8249 11.9209V10.3472C35.8813 10.3501 33.976 9.80848 32.327 8.78425C33.7867 10.3745 35.7088 11.471 37.8249 11.9209ZM27.5835 1.79997C27.534 1.51858 27.496 1.23535 27.4696 0.951026V0H19.9955V29.5328C19.9836 32.9752 17.1758 35.7629 13.7129 35.7629C12.6962 35.7629 11.7363 35.5228 10.8862 35.0961C12.0343 36.5952 13.847 37.5629 15.8875 37.5629C19.3499 37.5629 22.1582 34.7755 22.1703 31.3326V1.79997H27.5835ZM15.6199 17.6689V15.9935C14.9954 15.9086 14.3658 15.866 13.7354 15.8663C6.14938 15.8661 0 21.9851 0 29.5328C0 34.2647 2.41682 38.435 6.08935 40.8881C3.66711 38.4244 2.17467 35.0521 2.17467 31.3324C2.17467 23.881 8.16769 17.8221 15.6199 17.6689Z" fill="#FF8AEC"/>
</svg>
