<svg width="40" height="40" viewBox="0 0 40 40" fill="none" xmlns="http://www.w3.org/2000/svg">
<path d="M0 19.1152C0 10.1042 0 5.5987 2.81177 2.79935C5.62355 0 10.149 0 19.2 0H20.8C29.851 0 34.3764 0 37.1882 2.79935C40 5.5987 40 10.1042 40 19.1152V20.7081C40 29.7191 40 34.2245 37.1882 37.0239C34.3764 39.8233 29.851 39.8233 20.8 39.8233H19.2C10.149 39.8233 5.62355 39.8233 2.81177 37.0239C0 34.2245 0 29.7191 0 20.7081V19.1152Z" fill="#6F097A"/>
<path d="M21.2833 28.6892C12.1667 28.6892 6.96675 22.4668 6.75008 12.1128H11.3168C11.4668 19.7124 14.8333 22.9314 17.5 23.5952V12.1128H21.8002V18.667C24.4335 18.385 27.1998 15.3982 28.1332 12.1128H32.4333C31.7166 16.1615 28.7166 19.1482 26.5833 20.3761C28.7166 21.3717 32.1334 23.9768 33.4334 28.6892H28.6999C27.6833 25.5366 25.1502 23.0974 21.8002 22.7655V28.6892H21.2833Z" fill="#F8F8F8"/>
</svg>
