<svg width="40" height="40" viewBox="0 0 40 40" fill="none" xmlns="http://www.w3.org/2000/svg">
<path d="M13.5642 30.5589L14.0364 30.8375C16.0204 32.0097 18.295 32.6297 20.6145 32.6309H20.6196C27.7433 32.6309 33.5411 26.86 33.5438 19.7674C33.5449 16.33 32.2019 13.0982 29.7618 10.6666C27.3215 8.2355 24.0769 6.89569 20.6242 6.89426C13.4952 6.89426 7.69736 12.6642 7.69467 19.7569C7.69373 22.1873 8.37665 24.5545 9.67059 26.6023L9.97814 27.0891L8.67218 31.8358L13.5642 30.5589ZM4.93897 35.5127L7.14497 27.4932C5.78428 25.1461 5.06847 22.4836 5.06959 19.7561C5.0729 11.223 12.048 4.28076 20.6199 4.28076C24.7794 4.28255 28.6835 5.89421 31.6194 8.81953C34.555 11.7448 36.1712 15.6333 36.1698 19.7686C36.1662 28.3013 29.1896 35.2449 20.6199 35.2449C20.6193 35.2449 20.6202 35.2449 20.6199 35.2449H20.6133C18.0109 35.244 15.4537 34.5941 13.1826 33.3609L4.93897 35.5127Z" fill="#F8F8F8"/>
<path d="M5.60542 19.7641C5.60447 22.3969 6.29546 24.9673 7.60935 27.2333L5.47955 34.9753L13.4374 32.8979C15.6299 34.0874 18.0985 34.7153 20.6108 34.7161H20.6173C28.8907 34.7161 35.6248 28.0135 35.6284 19.7758C35.63 15.7836 34.0699 12.0303 31.2356 9.206C28.4016 6.38211 24.6327 4.82609 20.6166 4.82422C12.3428 4.82422 5.609 11.5259 5.60542 19.7641ZM20.6173 34.7161C20.617 34.7161 20.6171 34.7161 20.6173 34.7161V34.7161Z" fill="url(#paint0_linear_223_64)"/>
<path d="M5.06934 19.7596C5.0684 22.487 5.78422 25.1498 7.1449 27.4966L4.93873 35.5156L13.1821 33.3638C15.4534 34.5969 18.0104 35.2468 20.6128 35.2478H20.6194C29.1891 35.2478 36.1657 28.3042 36.1693 19.7716C36.1708 15.636 34.5545 11.7476 31.6189 8.82247C28.6828 5.89732 24.779 4.28548 20.6194 4.28369C12.048 4.28369 5.07267 11.2259 5.06908 19.7591M9.97806 27.0922L9.67035 26.6057C8.37641 24.5576 7.69349 22.1905 7.69443 19.7602C7.69726 12.668 13.4949 6.89763 20.624 6.89763C24.0763 6.89897 27.321 8.23891 29.7615 10.67C32.2019 13.1013 33.5447 16.3333 33.5437 19.7703C33.5406 26.863 27.7428 32.6338 20.6191 32.6338H20.614C18.2945 32.6325 16.0197 32.0126 14.0359 30.8406L13.5637 30.5619L8.67175 31.8388L9.97806 27.0922ZM20.6194 35.2478C20.6191 35.2478 20.6193 35.2478 20.6194 35.2478V35.2478Z" fill="url(#paint1_linear_223_64)"/>
<path fill-rule="evenodd" clip-rule="evenodd" d="M16.7331 13.2892C16.442 12.645 16.1357 12.6321 15.8588 12.6208C15.6322 12.6112 15.3731 12.6118 15.1142 12.6118C14.8551 12.6118 14.4341 12.7086 14.0782 13.0957C13.722 13.4828 12.7182 14.4186 12.7182 16.3217C12.7182 18.225 14.1107 20.064 14.3047 20.3223C14.499 20.5802 16.9926 24.6106 20.9416 26.161C24.2237 27.4496 24.8916 27.1933 25.604 27.1287C26.3164 27.0643 27.9028 26.1933 28.2265 25.29C28.5503 24.3868 28.5503 23.6126 28.4532 23.451C28.3562 23.2898 28.097 23.1929 27.7085 22.9996C27.3198 22.8062 25.4097 21.8703 25.0536 21.7412C24.6973 21.6122 24.4383 21.5479 24.1791 21.9351C23.9201 22.3219 23.176 23.193 22.9492 23.451C22.7227 23.7095 22.4959 23.7417 22.1074 23.5483C21.7187 23.3542 20.4673 22.9461 18.9828 21.6285C17.8278 20.6032 17.048 19.337 16.8213 18.9497C16.5947 18.5629 16.7971 18.3534 16.9919 18.1605C17.1665 17.9872 17.3806 17.7089 17.5749 17.4831C17.7687 17.2572 17.8334 17.096 17.9629 16.838C18.0926 16.5798 18.0278 16.3539 17.9307 16.1604C17.8334 15.9669 17.0786 14.0541 16.7331 13.2892Z" fill="#F8F8F8"/>
<defs>
<linearGradient id="paint0_linear_223_64" x1="20.5541" y1="34.9721" x2="20.5541" y2="4.82105" gradientUnits="userSpaceOnUse">
<stop stop-color="#6F097A"/>
<stop offset="1" stop-color="#6F097A"/>
</linearGradient>
<linearGradient id="paint1_linear_223_64" x1="20.5542" y1="35.5165" x2="20.5542" y2="4.28463" gradientUnits="userSpaceOnUse">
<stop stop-color="#F9F9F9"/>
<stop offset="1" stop-color="#F8F8F8"/>
</linearGradient>
</defs>
</svg>
