<svg width="41" height="28" viewBox="0 0 41 28" fill="none" xmlns="http://www.w3.org/2000/svg">
<path d="M39.2596 4.36412C38.7976 2.64542 37.4408 1.29477 35.7145 0.834702C32.5887 2.49857e-07 20.0488 0 20.0488 0C20.0488 0 7.5091 2.49857e-07 4.38323 0.834702C2.65691 1.29477 1.30028 2.64542 0.838162 4.36412C-0.00024389 7.47616 -0.000244141 13.973 -0.000244141 13.973C-0.000244141 13.973 -0.00024389 20.4699 0.838162 23.582C1.30028 25.3007 2.65691 26.6513 4.38323 27.1113C7.5091 27.9461 20.0488 27.9461 20.0488 27.9461C20.0488 27.9461 32.5887 27.9461 35.7145 27.1113C37.4408 26.6513 38.7976 25.3007 39.2596 23.582C40.0981 20.4699 40.0981 13.973 40.0981 13.973C40.0981 13.973 40.0947 7.47616 39.2596 4.36412Z" fill="#6F097A"/>
<path d="M16.0354 19.9608L26.4528 13.9734L16.0354 7.98584V19.9608Z" fill="white"/>
</svg>
